<svg xmlns="http://www.w3.org/2000/svg" width="400" height="400" fill="none" viewBox="0 0 400 400">
  <path fill="#DBE8DE" stroke="#CCC" d="M.5.5h399v399H.5z"/>
  <path fill="#E72C83" d="M125.72 193c0 4.08-.72 7.98-2.16 11.7-1.44 3.72-3.48 7.32-6.12 10.8-2.64 3.48-5.76 6.9-9.36 10.26-3.48 3.24-7.32 6.42-11.52 9.54-4.44 3.36-9.6 6.6-15.48 9.72-5.88 3.12-11.82 5.88-17.82 8.28-5.88 2.52-11.46 4.5-16.74 5.94-5.28 1.44-9.54 2.16-12.78 2.16-2.16 0-3.72-.3-4.68-.9-1.08-.48-1.62-1.68-1.62-3.6 0-1.32.48-2.88 1.44-4.68.96-1.8 1.92-2.7 2.88-2.7s1.68.3 2.16.9c.36.6.54 1.26.54 1.98v.9c-.12.24-.18.42-.18.54v.36c4.56-.48 10.68-1.92 18.36-4.32 7.56-2.28 16.62-6.3 27.18-12.06 4.56-2.52 9.06-5.46 13.5-8.82 4.44-3.48 8.4-7.14 11.88-10.98 3.6-3.96 6.48-8.04 8.64-12.24 2.16-4.32 3.24-8.52 3.24-12.6 0-2.88-1.5-5.82-4.5-8.82-2.88-3.12-6.6-6-11.16-8.64-4.44-2.76-9.3-5.1-14.58-7.02-5.28-2.04-10.2-3.42-14.76-4.14.12.6.3 2.1.54 4.5.24 2.28.6 4.98 1.08 8.1.48 3.12 1.02 6.48 1.62 10.08.72 3.48 1.5 6.72 2.34 9.72.96 3.36 1.56 5.88 1.8 7.56.36 1.56.6 2.88.72 3.96.12 1.2.3 2.76.54 4.68.36 1.8.6 3.72.72 5.76.24 1.92.42 3.78.54 5.58.24 1.68.36 3 .36 3.96 0 1.08-.24 2.22-.72 3.42-.36 1.2-.84 1.8-1.44 1.8-1.44 0-2.46-.48-3.06-1.44-.48-1.08-.96-2.82-1.44-5.22-.36-2.52-.84-5.76-1.44-9.72-.6-3.96-1.74-8.82-3.42-14.58-2.4-8.04-4.08-15.6-5.04-22.68-.96-7.2-1.56-12.9-1.8-17.1h-.9c-.48-.12-1.2-.18-2.16-.18h-3.06c-1.08-.12-2.1-.18-3.06-.18-2.04 0-3.9.42-5.58 1.26-1.68.72-3.06 1.56-4.14 2.52-1.2.96-2.16 1.86-2.88 2.7-.84.72-1.38 1.08-1.62 1.08-.84 0-1.98-.18-3.42-.54-1.56-.48-2.34-1.32-2.34-2.52 0-1.56.78-3.12 2.34-4.68 1.44-1.68 3.24-3.12 5.4-4.32a28.3 28.3 0 017.02-3.06c2.52-.84 4.86-1.26 7.02-1.26 3.6 0 7.8.48 12.6 1.44s9.72 2.28 14.76 3.96c5.16 1.68 10.2 3.72 15.12 6.12 5.04 2.4 9.54 5.04 13.5 7.92 3.96 2.88 7.14 6 9.54 9.36 2.4 3.36 3.6 6.84 3.6 10.44z"/>
  <path fill="#F52A48" d="M216.56 255.28c0 .84-.3 1.74-.9 2.7-.6.96-1.44 1.44-2.52 1.44-.6 0-1.26-.18-1.98-.54-4.32-2.04-9.36-3.72-15.12-5.04-5.76-1.2-11.7-2.28-17.82-3.24-6-.96-11.88-2.04-17.64-3.24-5.76-1.08-10.8-2.52-15.12-4.32.72 1.56 1.44 2.82 2.16 3.78.72.96 1.32 1.8 1.8 2.52.6.72 1.08 1.38 1.44 1.98.36.72.54 1.62.54 2.7 0 .96-.36 1.68-1.08 2.16-.72.48-1.44.72-2.16.72-1.44 0-3-.9-4.68-2.7-1.56-1.8-3.18-4.08-4.86-6.84-1.68-2.76-3.36-5.82-5.04-9.18-1.56-3.48-3-6.84-4.32-10.08-1.32-3.24-2.46-6.18-3.42-8.82-.96-2.76-1.62-4.86-1.98-6.3l-7.92-31.68c0-.36.06-.84.18-1.44.24-.6.72-1.2 1.44-1.8-.48-.96-.72-1.98-.72-3.06 0-3.36 1.92-6.42 5.76-9.18 3.84-2.88 8.46-5.28 13.86-7.2 5.52-2.04 11.28-3.6 17.28-4.68 6-1.08 11.1-1.62 15.3-1.62 1.2 0 3 .12 5.4.36 2.4.12 4.74.54 7.02 1.26 2.4.72 4.44 1.86 6.12 3.42 1.8 1.44 2.7 3.48 2.7 6.12 0 2.52-1.32 5.4-3.96 8.64-2.52 3.24-5.7 6.66-9.54 10.26-3.84 3.6-7.98 7.32-12.42 11.16-4.44 3.72-8.58 7.5-12.42 11.34-3.84 3.72-7.08 7.38-9.72 10.98-2.52 3.48-3.78 6.72-3.78 9.72 0 2.28.96 4.32 2.88 6.12 2.04 1.68 4.56 3.18 7.56 4.5 3 1.32 6.24 2.46 9.72 3.42 3.6.96 6.96 1.74 10.08 2.34 3.24.6 6 1.08 8.28 1.44 2.4.24 3.84.36 4.32.36 1.56 0 4.26.18 8.1.54 3.84.36 7.74 1.02 11.7 1.98 4.08.84 7.68 1.98 10.8 3.42 3.12 1.44 4.68 3.3 4.68 5.58zm-34.74-91.62c0-.84-.42-1.56-1.26-2.16-.84-.72-1.98-1.26-3.42-1.62-1.32-.48-2.82-.78-4.5-.9-1.56-.24-3.12-.36-4.68-.36-2.4 0-5.28.36-8.64 1.08-3.36.72-6.78 1.62-10.26 2.7-3.36 1.08-6.48 2.16-9.36 3.24-2.88 1.08-4.98 1.98-6.3 2.7a71.05 71.05 0 00-7.38 4.86c-2.4 1.68-3.6 3.36-3.6 5.04 0 .24.18.48.54.72.36.24.54.66.54 1.26 0 .72.36 2.58 1.08 5.58.72 2.88 1.56 6.18 2.52 9.9.96 3.6 1.98 7.2 3.06 10.8 1.2 3.6 2.28 6.48 3.24 8.64 4.92-6.96 10.2-13.02 15.84-18.18 5.76-5.28 11.04-9.9 15.84-13.86 4.8-4.08 8.76-7.62 11.88-10.62 3.24-3.12 4.86-6.06 4.86-8.82z"/>
  <path fill="#EDC13E" d="M238.58 183.46c.12.24.24.42.36.54.12 0 .18.12.18.36 0 .72-1.5 2.1-4.5 4.14-3 1.92-6.72 4.14-11.16 6.66-4.44 2.4-9.12 4.86-14.04 7.38-4.92 2.4-9.3 4.38-13.14 5.94 0 .24-.12 1.02-.36 2.34-.24 1.32-.36 2.16-.36 2.52v3.42c0 2.76.42 5.52 1.26 8.28.84 2.64 2.1 5.04 3.78 7.2 1.8 2.16 3.96 3.9 6.48 5.22 2.52 1.32 5.46 1.98 8.82 1.98 1.44 0 3.18-.24 5.22-.72 2.16-.6 4.2-1.38 6.12-2.34 2.04-1.08 3.84-2.34 5.4-3.78 1.56-1.44 2.52-3.06 2.88-4.86 1.44.12 2.28.54 2.52 1.26.36.72.54 1.2.54 1.44 0 3.12-.78 5.82-2.34 8.1-1.44 2.16-3.3 3.96-5.58 5.4a28.3 28.3 0 01-7.02 3.06c-2.4.6-4.56.9-6.48.9-10.32 0-17.82-2.88-22.5-8.64-4.68-5.76-7.02-13.32-7.02-22.68 0-.48.12-1.56.36-3.24.24-1.68.36-2.82.36-3.42 0-.12-.24-.24-.72-.36-.48-.24-1.02-.48-1.62-.72-.48-.24-.96-.6-1.44-1.08-.36-.6-.54-1.38-.54-2.34s.36-1.74 1.08-2.34c.72-.6 1.56-1.14 2.52-1.62l1.8-1.08c1.08-4.56 2.34-8.94 3.78-13.14 1.56-4.32 3.48-8.64 5.76-12.96-.96 0-1.98-.12-3.06-.36s-1.62-1.08-1.62-2.52c0-1.68.96-3.54 2.88-5.58 2.04-2.04 4.32-3.96 6.84-5.76 2.64-1.8 5.22-3.3 7.74-4.5 2.52-1.32 4.32-1.98 5.4-1.98.48 0 .78.12.9.36.24.12.6.18 1.08.18.96 0 2.16-.18 3.6-.54 1.56-.36 3.18-.78 4.86-1.26 1.68-.48 3.24-.9 4.68-1.26 1.56-.36 2.82-.54 3.78-.54 1.08 0 1.86.36 2.34 1.08.6.72.9 1.5.9 2.34 0 .96-.6 1.68-1.8 2.16-1.2.36-2.28.66-3.24.9-3.36.6-6.9 1.68-10.62 3.24-3.6 1.44-6.96 3.06-10.08 4.86-1.2 1.32-2.64 3.24-4.32 5.76-1.68 2.4-3.3 5.16-4.86 8.28-1.56 3.12-3 6.36-4.32 9.72-1.2 3.36-1.98 6.54-2.34 9.54l3.06-1.44c9.24-4.44 16.74-7.92 22.5-10.44 5.88-2.52 10.44-3.78 13.68-3.78.6 0 1.14.24 1.62.72z"/>
  <path fill="#A7D453" d="M285.72 254.92c.12.48.18.9.18 1.26v1.08c0 1.2-.3 2.04-.9 2.52-.48.48-1.5.72-3.06.72-1.44 0-2.4-.24-2.88-.72-.72-.72-1.68-2.58-2.88-5.58s-2.46-6.54-3.78-10.62c-1.32-4.08-2.64-8.46-3.96-13.14-1.2-4.68-2.28-9.12-3.24-13.32-1.32.6-3.12 1.26-5.4 1.98-2.28.6-4.62 1.2-7.02 1.8-2.76.6-5.64 1.26-8.64 1.98-1.08 5.16-1.92 9.6-2.52 13.32-.48 3.6-.96 6.6-1.44 9-.36 2.28-.9 3.96-1.62 5.04-.6 1.2-1.62 1.8-3.06 1.8-.96 0-1.8-.54-2.52-1.62s-1.08-2.7-1.08-4.86c0-1.08.3-3.6.9-7.56.6-3.96 1.26-8.34 1.98-13.14.72-4.92 1.44-9.78 2.16-14.58.72-4.8 1.2-8.58 1.44-11.34.12-1.44.48-3.78 1.08-7.02.72-3.24 1.44-6.54 2.16-9.9.72-3.48 1.44-6.6 2.16-9.36.72-2.76 1.2-4.32 1.44-4.68 1.92-4.44 3.12-9 3.6-13.68.6-4.68 1.02-8.94 1.26-12.78.36-3.96.9-7.14 1.62-9.54.72-2.52 2.22-3.78 4.5-3.78.6 0 1.2.48 1.8 1.44.72.96 1.38 2.1 1.98 3.42.6 1.32 1.08 2.64 1.44 3.96.36 1.2.6 2.16.72 2.88.12.72.24 2.16.36 4.32.24 2.16.42 4.56.54 7.2.24 2.52.42 5.04.54 7.56.24 2.4.42 4.26.54 5.58.36 3.96.9 8.4 1.62 13.32.84 4.92 1.68 9.54 2.52 13.86.84 4.32 1.62 7.98 2.34 10.98.72 2.88 1.26 4.32 1.62 4.32.48 0 1.08-.12 1.8-.36.84-.24 1.62-.36 2.34-.36.96 0 1.44.48 1.44 1.44s-.24 1.74-.72 2.34c-.48.6-1.02 1.14-1.62 1.62-.48.48-.96.9-1.44 1.26-.36.36-.54.78-.54 1.26 0 .96.54 3.42 1.62 7.38l2.88 10.62c.24.96.78 2.58 1.62 4.86.84 2.28 1.68 4.68 2.52 7.2.96 2.4 1.8 4.62 2.52 6.66.72 2.16 1.08 3.48 1.08 3.96zm-39.96-41.22c.72 0 2.04-.18 3.96-.54 1.92-.48 3.9-1.02 5.94-1.62 2.04-.6 3.84-1.2 5.4-1.8 1.56-.6 2.34-1.08 2.34-1.44 0-.36-.24-1.26-.72-2.7-.36-1.56-.84-3.48-1.44-5.76l-1.62-8.1c-.6-3-1.14-6.18-1.62-9.54-.24-2.16-.54-5.1-.9-8.82-.36-3.72-.72-7.38-1.08-10.98-.36-3.72-.66-6.9-.9-9.54l-.36-3.96-.54 2.7c-.36 1.68-.78 3.6-1.26 5.76-.36 2.04-.72 4.02-1.08 5.94-.24 1.8-.36 2.82-.36 3.06v5.04c0 .24-.18 1.32-.54 3.24-.24 1.8-.6 4.14-1.08 7.02-.48 2.76-1.02 5.82-1.62 9.18-.48 3.24-.96 6.36-1.44 9.36-.48 3-.9 5.7-1.26 8.1-.24 2.28-.36 3.84-.36 4.68 0 .48.18.72.54.72z"/>
  <path fill="#0F93FF" d="M365.42 256.72c.24.72.48 1.38.72 1.98.24.6.42 1.26.54 1.98.24.72.36 1.38.36 1.98 0 .84-.3 1.5-.9 1.98-.6.6-1.32 1.08-2.16 1.44-.72.36-1.44.6-2.16.72-.72.12-1.14.18-1.26.18-.72 0-2.04-2.22-3.96-6.66-1.92-4.32-4.02-10.44-6.3-18.36-2.16-7.92-4.38-17.34-6.66-28.26-2.28-10.92-4.14-22.92-5.58-36-.24 2.76-.72 6-1.44 9.72-.6 3.6-1.56 7.02-2.88 10.26-1.32 3.24-3.06 6-5.22 8.28-2.04 2.16-4.68 3.24-7.92 3.24-2.28 0-4.86-1.2-7.74-3.6-2.88-2.4-5.7-5.22-8.46-8.46-2.64-3.36-5.1-6.72-7.38-10.08-2.16-3.48-3.78-6.3-4.86-8.46.48 5.28 1.26 11.64 2.34 19.08 1.2 7.44 3 15.3 5.4 23.58.24.84.48 1.5.72 1.98.36.36.66.78.9 1.26.36.48.6 1.02.72 1.62.24.48.36 1.26.36 2.34 0 1.56-.6 2.7-1.8 3.42-1.2.72-2.34 1.08-3.42 1.08-.6 0-1.38-.9-2.34-2.7-.96-1.92-1.98-4.38-3.06-7.38s-2.16-6.3-3.24-9.9c-1.08-3.72-2.1-7.38-3.06-10.98-.84-3.6-1.56-6.96-2.16-10.08-.6-3.24-.9-5.82-.9-7.74 0-3.12.12-5.28.36-6.48.36-1.2.84-2.1 1.44-2.7v-10.98c0-1.68.42-2.94 1.26-3.78.96-.96 2.16-1.44 3.6-1.44 1.2 0 2.58 1.02 4.14 3.06 1.56 2.04 3.24 4.62 5.04 7.74 1.92 3.12 3.9 6.48 5.94 10.08 2.04 3.6 4.02 6.96 5.94 10.08 2.04 3.12 3.96 5.7 5.76 7.74 1.92 2.04 3.72 3.06 5.4 3.06 1.56 0 3.06-1.44 4.5-4.32 1.44-3 2.76-6.9 3.96-11.7 1.32-4.8 2.46-10.26 3.42-16.38.96-6.12 1.74-12.36 2.34-18.72 0-.72-.06-1.5-.18-2.34-.12-.96-.18-1.98-.18-3.06 0-1.44.3-3 .9-4.68.72-1.68 2.04-2.52 3.96-2.52 1.08 0 1.92.3 2.52.9.72.6 1.2 1.38 1.44 2.34.24.84.36 1.74.36 2.7.12.84.18 1.56.18 2.16 0 .96-.12 2.58-.36 4.86-.12 2.16-.18 5.52-.18 10.08 0 3.96.3 8.58.9 13.86.6 5.16 1.38 10.68 2.34 16.56 1.08 5.76 2.28 11.76 3.6 18 1.44 6.12 2.94 12.12 4.5 18 1.68 5.88 3.3 11.46 4.86 16.74 1.68 5.16 3.36 9.72 5.04 13.68z"/>
</svg>
