<svg xmlns="http://www.w3.org/2000/svg" width="400" height="400" fill="none" viewBox="0 0 400 400">
  <path fill="#DBE8DE" stroke="#CCC" d="M.5.5h399v399H.5z"/>
  <path fill="#E72C83" d="M125.72 193c0 4.08-.72 7.98-2.16 11.7-1.44 3.72-3.48 7.32-6.12 10.8-2.64 3.48-5.76 6.9-9.36 10.26-3.48 3.24-7.32 6.42-11.52 9.54-4.44 3.36-9.6 6.6-15.48 9.72-5.88 3.12-11.82 5.88-17.82 8.28-5.88 2.52-11.46 4.5-16.74 5.94-5.28 1.44-9.54 2.16-12.78 2.16-2.16 0-3.72-.3-4.68-.9-1.08-.48-1.62-1.68-1.62-3.6 0-1.32.48-2.88 1.44-4.68.96-1.8 1.92-2.7 2.88-2.7s1.68.3 2.16.9c.36.6.54 1.26.54 1.98v.9c-.12.24-.18.42-.18.54v.36c4.56-.48 10.68-1.92 18.36-4.32 7.56-2.28 16.62-6.3 27.18-12.06 4.56-2.52 9.06-5.46 13.5-8.82 4.44-3.48 8.4-7.14 11.88-10.98 3.6-3.96 6.48-8.04 8.64-12.24 2.16-4.32 3.24-8.52 3.24-12.6 0-2.88-1.5-5.82-4.5-8.82-2.88-3.12-6.6-6-11.16-8.64-4.44-2.76-9.3-5.1-14.58-7.02-5.28-2.04-10.2-3.42-14.76-4.14.12.6.3 2.1.54 4.5.24 2.28.6 4.98 1.08 8.1.48 3.12 1.02 6.48 1.62 10.08.72 3.48 1.5 6.72 2.34 9.72.96 3.36 1.56 5.88 1.8 7.56.36 1.56.6 2.88.72 3.96.12 1.2.3 2.76.54 4.68.36 1.8.6 3.72.72 5.76.24 1.92.42 3.78.54 5.58.24 1.68.36 3 .36 3.96 0 1.08-.24 2.22-.72 3.42-.36 1.2-.84 1.8-1.44 1.8-1.44 0-2.46-.48-3.06-1.44-.48-1.08-.96-2.82-1.44-5.22-.36-2.52-.84-5.76-1.44-9.72-.6-3.96-1.74-8.82-3.42-14.58-2.4-8.04-4.08-15.6-5.04-22.68-.96-7.2-1.56-12.9-1.8-17.1h-.9c-.48-.12-1.2-.18-2.16-.18h-3.06c-1.08-.12-2.1-.18-3.06-.18-2.04 0-3.9.42-5.58 1.26-1.68.72-3.06 1.56-4.14 2.52-1.2.96-2.16 1.86-2.88 2.7-.84.72-1.38 1.08-1.62 1.08-.84 0-1.98-.18-3.42-.54-1.56-.48-2.34-1.32-2.34-2.52 0-1.56.78-3.12 2.34-4.68 1.44-1.68 3.24-3.12 5.4-4.32a28.3 28.3 0 017.02-3.06c2.52-.84 4.86-1.26 7.02-1.26 3.6 0 7.8.48 12.6 1.44s9.72 2.28 14.76 3.96c5.16 1.68 10.2 3.72 15.12 6.12 5.04 2.4 9.54 5.04 13.5 7.92 3.96 2.88 7.14 6 9.54 9.36 2.4 3.36 3.6 6.84 3.6 10.44z"/>
  <path fill="#F4F4F4" d="M123.56 204.7l-.933-.361.933.361zm-6.12 10.8l-.797-.604.797.604zm-9.36 10.26l.681.732.001-.001-.682-.731zm-11.52 9.54l-.596-.803-.007.006.603.797zm-15.48 9.72l-.469-.883.469.883zm-17.82 8.28l-.371-.928-.012.004-.01.005.393.919zm-16.74 5.94l.263.965-.263-.965zm-17.46 1.26l.53-.848-.06-.037-.064-.029-.406.914zm-.18-8.28l-.882-.471.882.471zm5.04-1.8l.858-.514-.035-.058-.042-.053-.781.625zm.54 2.88l.894.447.106-.211v-.236h-1zm-.18.9h-1v1.111l1.105-.116-.105-.995zm18.36-4.32l-.289-.957-.01.003.299.954zm27.18-12.06l.479.878.005-.003-.484-.875zm13.5-8.82l.603.797.007-.005.007-.005-.617-.787zm11.88-10.98l-.74-.673-.001.001.741.672zm8.64-12.24l.889.457.005-.01-.894-.447zm-1.26-21.42l-.735.678.014.015.014.014.707-.707zm-11.16-8.64l-.528.849.013.009.014.007.501-.865zm-14.58-7.02l-.36.933.009.003.01.004.341-.94zm-14.76-4.14l.156-.988-1.418-.224.281 1.408.981-.196zm.54 4.5l-.995.099v.006l.995-.105zm1.08 8.1l-.988.152.988-.152zm1.62 10.08l-.986.164.003.02.004.019.979-.203zm2.34 9.72l-.963.27.001.005.962-.275zm1.8 7.56l-.99.141.006.042.01.042.974-.225zm.72 3.96l.995-.1-.001-.01-.994.11zm.54 4.68l-.992.124.004.036.007.036.981-.196zm.72 5.76l-.998.059.002.032.004.033.992-.124zm.54 5.58l-.998.067.003.037.005.037.99-.141zm-.36 7.38l-.928-.371-.017.041-.013.043.958.287zm-4.5.36l-.914.406.029.064.037.06.848-.53zm-1.44-5.22l-.99.141.004.028.005.027.981-.196zm-1.44-9.72l.989-.15-.989.15zm-3.42-14.58l.96-.28-.002-.006-.958.286zm-5.04-22.68l-.991.132v.002l.991-.134zm-1.8-17.1l.998-.057-.053-.943h-.945v1zm-.9 0l-.242.97.119.03h.123v-1zm-5.22-.18l-.11.994.055.006h.055v-1zm-8.64 1.08l.394.919.027-.011.026-.014-.447-.894zm-4.14 2.52l.625.781.02-.016.02-.018-.665-.747zm-2.88 2.7l.65.759.06-.05.05-.058-.76-.651zm-5.04.54l-.294.956.026.008.025.006.243-.97zm0-7.2l.707.707.027-.027.025-.029-.759-.651zm5.4-4.32l.486.874.018-.01.017-.011-.521-.853zm7.02-3.06l.275.962.02-.006.021-.007-.316-.949zm19.62.18l.196-.981-.196.981zm14.76 3.96l-.316.949.006.002.31-.951zm15.12 6.12l-.438.899.008.004.43-.903zm13.5 7.92l.588-.809-.588.809zm9.54 9.36l-.814.581.814-.581zm2.6 10.44c0 3.959-.698 7.737-2.093 11.339l1.866.722c1.485-3.838 2.227-7.86 2.227-12.061h-2zm-2.093 11.339c-1.403 3.625-3.395 7.144-5.984 10.557l1.594 1.208c2.691-3.547 4.779-7.228 6.256-11.043l-1.866-.722zm-5.984 10.557c-2.601 3.429-5.682 6.807-9.245 10.133l1.364 1.462c3.637-3.394 6.796-6.856 9.475-10.387l-1.594-1.208zm-9.244 10.132c-3.451 3.213-7.262 6.369-11.435 9.469l1.192 1.606c4.227-3.14 8.096-6.344 11.605-9.611l-1.362-1.464zm-11.442 9.475c-4.39 3.322-9.504 6.534-15.346 9.634l.938 1.766c5.918-3.14 11.125-6.408 15.614-9.806l-1.206-1.594zm-15.346 9.634a182.394 182.394 0 01-17.722 8.235l.742 1.856a183.723 183.723 0 0017.918-8.325l-.938-1.766zm-17.745 8.244c-5.844 2.505-11.38 4.468-16.61 5.894l.527 1.93c5.331-1.454 10.955-3.451 16.87-5.986l-.787-1.838zm-16.61 5.894c-5.244 1.431-9.405 2.125-12.516 2.125v2c3.37 0 7.728-.746 13.043-2.195l-.526-1.93zM33.74 260.4c-2.116 0-3.438-.303-4.15-.748l-1.06 1.696c1.207.755 3.006 1.052 5.21 1.052v-2zm-4.274-.814c-.523-.232-1.026-.889-1.026-2.686h-2c0 2.043.577 3.786 2.214 4.514l.812-1.828zM28.44 256.9c0-1.09.401-2.482 1.322-4.209l-1.764-.942c-1 1.873-1.558 3.601-1.558 5.151h2zm1.322-4.209c.454-.851.873-1.421 1.242-1.766.364-.342.612-.405.756-.405v-2c-.816 0-1.528.387-2.124.945-.591.555-1.132 1.335-1.638 2.284l1.764.942zm1.998-2.171c.74 0 1.135.22 1.38.525l1.56-1.25c-.715-.895-1.76-1.275-2.94-1.275v2zm1.302.414c.265.44.398.922.398 1.466h2c0-.896-.227-1.734-.682-2.494l-1.715 1.028zm.398 1.466V253.3h2v-.001-.002-.001-.002-.001-.001-.002-.001-.002-.001-.002-.001-.001-.002-.001-.002-.001-.002-.001-.001-.002-.001-.002-.001-.002-.001-.001-.002-.001-.002-.001-.002-.001-.002-.001-.002-.001-.001-.002-.001-.002-.001-.002-.001-.002-.001-.002-.001-.002-.001-.002-.001-.001-.002-.001-.002-.001-.002-.001-.002-.001-.002-.001-.002-.001-.002-.001-.002-.001-.002-.001-.002-.001-.002-.001-.002-.001-.002-.001-.002-.001-.002-.001-.002-.001-.002-.002-.001-.002-.001-.002-.001-.002-.001-.002-.001-.002-.001-.002-.001-.002-.002-.001-.002-.001-.002-.001-.002-.001-.002-.002-.001-.002-.001-.002-.001-.002-.001-.002-.002-.001-.002-.001-.002-.002-.001-.002-.001-.002-.001-.002-.002-.001-.002-.001-.002-.002-.001-.002-.001-.002-.002-.001-.002-.001-.002-.002-.001-.002-.001-.002-.002-.001-.002-.001-.002-.002-.001-.002-.002-.001-.002-.001-.002-.002-.001-.002-.002-.001-.002-.002-.001-.002-.001-.002-.002-.001-.002-.002-.001-.002-.002-.001-.002-.002-.001-.002-.002-.001-.002-.002-.001-.002-.002V253v-.002-.002-.001-.002-.002-.001-.002-.002-.001-.002-.002-.002-.001-.002-.002-.001-.002-.002-.001-.002-.002-.001-.002-.002-.002-.001-.002-.002-.001-.002-.002-.002-.001-.002-.002-.001-.002-.002-.002-.001-.002-.002-.002-.001-.002-.002-.002-.001-.002-.002-.001-.002-.002-.002-.001-.002-.002-.002-.001-.002-.002-.002-.002-.001-.002-.002-.002-.001-.002-.002-.002-.001-.002-.002-.002-.002-.001-.002-.002-.002-.001-.002-.002-.002-.002-.001-.002-.002-.002-.002-.001-.002-.002-.002-.002-.001-.002-.002-.002-.002-.001-.002-.002-.002-.002-.001-.002-.002-.002-.002-.002-.001-.002-.002-.002-.002-.002-.001-.002-.002-.002-.002-.002-.001-.002-.002-.002-.002-.002-.002-.001-.002-.002-.002-.002-.002-.002-.001-.002-.002-.002-.002-.002-.002-.002-.001-.002-.002-.002-.002-.002-.002-.002-.001-.002-.002-.002-.002-.002-.002-.002-.002-.001-.002-.002-.002-.002-.002-.002-.002-.002-.002-.001-.002-.002-.002-.002-.002-.002-.002-.002-.002-.002-.002-.002-.001-.002-.002-.002-.002-.002-.002-.002-.002-.002-.002-.002-.002-.002-.002-.002-.002-.001-.002-.002-.002-.002-.002-.002-.002-.002-.002-.002-.002-.002-.002-.002-.002-.002-.002-.002-.002-.002-.002-.002-.002-.002-.002-.002-.002-.002-.002-.002-.002-.002-.002-.002-.002-.002-.002-.002-.002-.002-.002-.002-.002-.002-.002-.002-.002-.002-.002-.002-.002-.002-.002-.002-.002-.002-.002-.002-.002-.002-.002-.002-.002-.002-.002-.002-.002-.002-.002-.003-.002-.002-.002-.002-.002-.002-.002-.002-.002-.002-.002-.002-.002-.002-.002-.002-.003-.002-.002-.002-.002-.002-.002-.002-.002-.002-.002-.002-.003-.002-.002-.002-.002-.002-.002-.002-.002-.002-.002-.003-.002-.002-.002-.002h-2zm.106.453c-.124.248-.286.612-.286.987h2a.496.496 0 01-.008.095c-.002.011-.003.011.002-.004.01-.031.034-.09.08-.184l-1.788-.894zm-.286.987v.36h2v-.36h-2zm1.105 1.355c4.657-.491 10.85-1.953 18.553-4.361l-.596-1.908c-7.657 2.392-13.704 3.81-18.167 4.279l.21 1.99zm18.544-4.358c7.65-2.307 16.777-6.361 27.37-12.139l-.958-1.756c-10.527 5.742-19.52 9.728-26.99 11.981l.578 1.914zm27.375-12.142c4.604-2.544 9.144-5.511 13.62-8.898l-1.207-1.594c-4.405 3.333-8.865 6.246-13.38 8.742l.967 1.75zm13.633-8.908c4.48-3.512 8.483-7.21 12.004-11.095l-1.482-1.344c-3.439 3.795-7.357 7.417-11.756 10.865l1.234 1.574zm12.003-11.094c3.651-4.017 6.584-8.168 8.789-12.456l-1.778-.914c-2.115 4.112-4.942 8.121-8.491 12.024l1.48 1.346zm8.794-12.466c2.217-4.433 3.346-8.786 3.346-13.047h-2c0 3.899-1.031 7.946-3.134 12.153l1.788.894zm3.346-13.047c0-3.248-1.694-6.428-4.793-9.527l-1.414 1.414c2.901 2.901 4.207 5.601 4.207 8.113h2zm-4.765-9.498c-2.962-3.209-6.767-6.149-11.394-8.827l-1.002 1.73c4.493 2.602 8.128 5.422 10.926 8.453l1.47-1.356zm-11.367-8.811c-4.503-2.799-9.426-5.169-14.766-7.111l-.684 1.88c5.22 1.898 10.017 4.208 14.394 6.929l1.056-1.698zM87.2 167.767c-5.331-2.06-10.32-3.462-14.964-4.195l-.312 1.976c4.476.707 9.327 2.065 14.556 4.085l.72-1.866zm-16.1-3.011c.108.541.283 1.986.525 4.403l1.99-.199c-.238-2.382-.423-3.937-.554-4.596l-1.962.392zm.526 4.409c.242 2.3.604 5.017 1.086 8.147l1.976-.304c-.478-3.11-.836-5.793-1.073-8.053l-1.99.21zm1.086 8.147c.48 3.125 1.021 6.489 1.622 10.092l1.972-.328c-.599-3.597-1.138-6.953-1.618-10.068l-1.976.304zm1.629 10.131a146.48 146.48 0 002.356 9.787l1.926-.54a144.262 144.262 0 01-2.324-9.653l-1.958.406zm2.358 9.792c.957 3.352 1.541 5.817 1.771 7.426l1.98-.282c-.25-1.751-.866-4.326-1.829-7.694l-1.922.55zm1.787 7.51c.355 1.538.586 2.817.7 3.845l1.988-.22c-.126-1.132-.375-2.493-.74-4.075l-1.948.45zm.699 3.835c.121 1.211.302 2.78.543 4.704l1.984-.248a198.04 198.04 0 01-.537-4.656l-1.99.2zm.554 4.776c.35 1.75.585 3.624.703 5.623l1.996-.118a42.935 42.935 0 00-.737-5.897l-1.962.392zm.709 5.688a96 96 0 01.534 5.523l1.996-.134a98.19 98.19 0 00-.546-5.637l-1.984.248zm.542 5.597c.238 1.663.35 2.929.35 3.819h2c0-1.03-.128-2.404-.37-4.101l-1.98.282zm.35 3.819c0 .93-.207 1.944-.648 3.049l1.857.742c.518-1.295.791-2.561.791-3.791h-2zm-.678 3.133c-.163.545-.328.856-.453 1.012-.108.135-.115.075-.029.075v2c.686 0 1.219-.36 1.59-.825.356-.444.611-1.033.808-1.688l-1.916-.574zm-.482 1.087c-1.202 0-1.845-.383-2.212-.97l-1.696 1.06c.833 1.333 2.23 1.91 3.908 1.91v-2zm-2.146-.846c-.433-.974-.896-2.623-1.373-5.01l-1.962.392c.483 2.413.98 4.244 1.507 5.43l1.828-.812zm-1.364-4.955c-.36-2.524-.841-5.767-1.441-9.729l-1.978.3c.6 3.958 1.08 7.195 1.44 9.711l1.979-.282zm-1.441-9.729c-.61-4.02-1.762-8.926-3.449-14.71l-1.92.56c1.673 5.736 2.8 10.55 3.391 14.45l1.978-.3zm-3.45-14.716c-2.388-7.999-4.056-15.508-5.008-22.528l-1.982.268c.968 7.14 2.66 14.751 5.073 22.832l1.916-.572zm-5.008-22.526c-.959-7.19-1.555-12.862-1.793-17.025l-1.996.114c.242 4.237.846 9.965 1.807 17.175l1.982-.264zM63.98 162.94v-1h-.001-.002-.001-.001-.001-.003-.001-.001-.001-.001-.001-.007-.001-.001-.002-.001-.002-.001-.001-.001-.001-.001-.001-.002-.003-.003-.003-.001-.003-.001-.003-.002-.001-.001-.005-.002-.001-.001-.001-.001-.001-.001-.001-.001-.001-.001-.001-.001-.001-.001-.001-.001-.001-.002-.006-.001-.001-.001-.006-.001-.001-.004-.001-.001-.004-.001-.004-.001-.004-.001-.004-.004-.004-.002-.001-.001-.002-.001-.004-.002-.001-.002-.001-.001-.002-.001-.002-.001-.002-.001-.002-.001-.002-.001-.002-.001-.002-.001-.002-.001-.002-.002-.001-.002-.001-.002-.001-.002-.002-.001-.002-.002-.001-.002-.003-.002-.003-.002-.002-.001-.002-.002-.001-.002-.002-.002-.001-.002-.002-.002-.001-.002-.002-.002-.002-.001-.002-.002-.002-.002-.003-.002-.002-.002-.002-.002-.002-.005-.002-.002-.002-.002-.002-.002-.002-.002-.002-.002-.002-.002-.002-.002-.002-.002-.002-.002-.002-.002-.002-.002-.002-.002-.007-.002-.002-.002-.002-.002-.002-.007-.002-.002-.002-.005-.002-.002-.002-.005-.002-.002-.005-.002-.002-.005-.002-.005-.002-.007-.005-.002-.005-.002-.005-.005-.002-.005-.005-.002-.003-.002-.005-.005-.005-.005-.005-.005-.003-.005-.005-.005-.003-.005-.005-.003-.005-.008-.008-.003-.005-.003-.008-.003-.008-.003-.008-.003-.003-.008-.003-.003H63.38h-.003-.003-.003H63.351h-.003-.003-.003-.003-.003-.003-.003-.003-.003-.003-.003-.003-.003-.003-.003-.003-.003-.003-.022-.003-.003-.003-.016-.003H63.234h-.003H63.218h-.003-.01H63.192h-.01-.01-.01-.01-.017-.017-.007-.007-.007-.007-.007-.003v2H63.98v-1zm-.657-.97c-.603-.151-1.422-.21-2.403-.21v2c.94 0 1.56.061 1.917.15l.485-1.94zm-2.403-.21H57.86v2H60.92v-2zm-2.95.006a28.905 28.905 0 00-3.17-.186v2c.919 0 1.902.057 2.95.174l.22-1.988zm-3.17-.186c-2.182 0-4.197.45-6.027 1.366l.894 1.788c1.53-.764 3.235-1.154 5.133-1.154v-2zm-5.974 1.341c-1.754.752-3.232 1.644-4.41 2.692l1.328 1.494c.982-.872 2.264-1.66 3.87-2.348l-.788-1.838zm-4.37 2.658c-1.232.985-2.242 1.928-3.015 2.83l1.518 1.302c.667-.778 1.577-1.635 2.746-2.57l-1.25-1.562zm-2.907 2.722a10.7 10.7 0 01-.939.737c-.111.074-.18.111-.213.127-.054.024.026-.025.183-.025v2c.277 0 .514-.094.655-.16.162-.074.326-.172.485-.278.318-.212.698-.512 1.13-.883l-1.3-1.518zm-.969.839c-.719 0-1.766-.157-3.177-.51l-.486 1.94c1.47.367 2.702.57 3.663.57v-2zm-3.126-.496c-.68-.209-1.086-.466-1.316-.714-.21-.226-.318-.489-.318-.85h-2c0 .839.282 1.596.852 2.21.55.592 1.313.995 2.194 1.266l.588-1.912zm-1.634-1.564c0-1.201.596-2.522 2.047-3.973l-1.414-1.414c-1.67 1.669-2.633 3.468-2.633 5.387h2zm2.1-4.029c1.353-1.58 3.057-2.948 5.126-4.097l-.972-1.748c-2.251 1.251-4.148 2.763-5.673 4.543l1.518 1.302zm5.161-4.118a27.309 27.309 0 016.774-2.951l-.55-1.924a29.292 29.292 0 00-7.266 3.169l1.042 1.706zm6.815-2.964c2.44-.814 4.673-1.209 6.704-1.209v-2c-2.289 0-4.737.445-7.336 1.311l.632 1.898zm6.704-1.209c3.515 0 7.647.469 12.404 1.421l.392-1.962c-4.843-.968-9.111-1.459-12.796-1.459v2zm12.404 1.421c4.756.951 9.636 2.26 14.64 3.928l.632-1.898c-5.076-1.692-10.036-3.023-14.88-3.992l-.392 1.962zm14.646 3.93a116.138 116.138 0 0114.992 6.068l.876-1.798a118.325 118.325 0 00-15.248-6.172l-.62 1.902zm15 6.072c4.992 2.377 9.438 4.987 13.342 7.826l1.176-1.618c-4.016-2.921-8.57-5.591-13.658-8.014l-.86 1.806zm13.342 7.826c3.889 2.828 6.987 5.874 9.314 9.132l1.628-1.162c-2.473-3.462-5.735-6.656-9.766-9.588l-1.176 1.618zm9.314 9.132c2.298 3.216 3.414 6.497 3.414 9.859h2c0-3.838-1.284-7.517-3.786-11.021l-1.628 1.162z"/>
  <path fill="#F52A48" d="M216.56 255.28c0 .84-.3 1.74-.9 2.7-.6.96-1.44 1.44-2.52 1.44-.6 0-1.26-.18-1.98-.54-4.32-2.04-9.36-3.72-15.12-5.04-5.76-1.2-11.7-2.28-17.82-3.24-6-.96-11.88-2.04-17.64-3.24-5.76-1.08-10.8-2.52-15.12-4.32.72 1.56 1.44 2.82 2.16 3.78.72.96 1.32 1.8 1.8 2.52.6.72 1.08 1.38 1.44 1.98.36.72.54 1.62.54 2.7 0 .96-.36 1.68-1.08 2.16-.72.48-1.44.72-2.16.72-1.44 0-3-.9-4.68-2.7-1.56-1.8-3.18-4.08-4.86-6.84-1.68-2.76-3.36-5.82-5.04-9.18-1.56-3.48-3-6.84-4.32-10.08-1.32-3.24-2.46-6.18-3.42-8.82-.96-2.76-1.62-4.86-1.98-6.3l-7.92-31.68c0-.36.06-.84.18-1.44.24-.6.72-1.2 1.44-1.8-.48-.96-.72-1.98-.72-3.06 0-3.36 1.92-6.42 5.76-9.18 3.84-2.88 8.46-5.28 13.86-7.2 5.52-2.04 11.28-3.6 17.28-4.68 6-1.08 11.1-1.62 15.3-1.62 1.2 0 3 .12 5.4.36 2.4.12 4.74.54 7.02 1.26 2.4.72 4.44 1.86 6.12 3.42 1.8 1.44 2.7 3.48 2.7 6.12 0 2.52-1.32 5.4-3.96 8.64-2.52 3.24-5.7 6.66-9.54 10.26-3.84 3.6-7.98 7.32-12.42 11.16-4.44 3.72-8.58 7.5-12.42 11.34-3.84 3.72-7.08 7.38-9.72 10.98-2.52 3.48-3.78 6.72-3.78 9.72 0 2.28.96 4.32 2.88 6.12 2.04 1.68 4.56 3.18 7.56 4.5 3 1.32 6.24 2.46 9.72 3.42 3.6.96 6.96 1.74 10.08 2.34 3.24.6 6 1.08 8.28 1.44 2.4.24 3.84.36 4.32.36 1.56 0 4.26.18 8.1.54 3.84.36 7.74 1.02 11.7 1.98 4.08.84 7.68 1.98 10.8 3.42 3.12 1.44 4.68 3.3 4.68 5.58zm-34.74-91.62c0-.84-.42-1.56-1.26-2.16-.84-.72-1.98-1.26-3.42-1.62-1.32-.48-2.82-.78-4.5-.9-1.56-.24-3.12-.36-4.68-.36-2.4 0-5.28.36-8.64 1.08-3.36.72-6.78 1.62-10.26 2.7-3.36 1.08-6.48 2.16-9.36 3.24-2.88 1.08-4.98 1.98-6.3 2.7a71.05 71.05 0 00-7.38 4.86c-2.4 1.68-3.6 3.36-3.6 5.04 0 .24.18.48.54.72.36.24.54.66.54 1.26 0 .72.36 2.58 1.08 5.58.72 2.88 1.56 6.18 2.52 9.9.96 3.6 1.98 7.2 3.06 10.8 1.2 3.6 2.28 6.48 3.24 8.64 4.92-6.96 10.2-13.02 15.84-18.18 5.76-5.28 11.04-9.9 15.84-13.86 4.8-4.08 8.76-7.62 11.88-10.62 3.24-3.12 4.86-6.06 4.86-8.82z"/>
  <path fill="#F4F4F4" d="M211.16 258.88l.447-.894-.01-.005-.01-.005-.427.904zm-15.12-5.04l.223-.975-.009-.002-.01-.002-.204.979zm-17.82-3.24l-.158.987.003.001.155-.988zm-17.64-3.24l.204-.979-.01-.002-.01-.002-.184.983zm-15.12-4.32l.385-.923-2.368-.986 1.075 2.328.908-.419zm2.16 3.78l-.8.6.8-.6zm1.8 2.52l-.832.555.03.044.034.041.768-.64zm1.44 1.98l.894-.447-.017-.035-.02-.032-.857.514zm-7.38 2.88l-.756.655.012.014.013.013.731-.682zm-4.86-6.84l-.854.52.854-.52zm-5.04-9.18l-.913.409.009.019.01.019.894-.447zm-4.32-10.08l.926-.377-.926.377zm-3.42-8.82l-.945.329.005.013.94-.342zm-1.98-6.3l.97-.243-.97.243zm-7.92-31.68h-1v.123l.03.12.97-.243zm.18-1.44l-.928-.371-.035.085-.018.09.981.196zm1.44-1.8l.64.768.609-.507-.355-.708-.894.447zm5.04-12.24l.584.812.008-.006.008-.006-.6-.8zm13.86-7.2l.335.942.012-.004-.347-.938zm17.28-4.68l.177.984-.177-.984zm20.7-1.26l-.1.995.025.003.025.001.05-.999zm7.02 1.26l-.301.954.007.002.007.002.287-.958zm6.12 3.42l-.68.733.027.025.028.023.625-.781zm-1.26 14.76l-.775-.632-.007.009-.007.009.789.614zm-21.96 21.42l.642.767.006-.006.006-.005-.654-.756zm-12.42 11.34l.696.718.005-.005.006-.006-.707-.707zm-9.72 10.98l-.806-.591-.004.004.81.587zm-.9 15.84l-.684.73.023.022.025.02.636-.772zm7.56 4.5l-.403.915.403-.915zm9.72 3.42l-.266.964.008.002.258-.966zm10.08 2.34l-.189.982.007.001.182-.983zm8.28 1.44l-.156.988.028.004.028.003.1-.995zm24.12 2.88l-.236.972.017.004.017.003.202-.979zm10.8 3.42l.419-.908-.419.908zm-31.32-88.2l-.651.759.034.029.036.026.581-.814zm-3.42-1.62l-.342.94.049.018.05.012.243-.97zm-4.5-.9l-.152.988.04.007.041.002.071-.997zm-13.32.72l.21.978-.21-.978zm-10.26 2.7l-.296-.955-.01.003.306.952zm-15.66 5.94l-.479-.878-.009.005-.008.005.496.868zm-7.38 4.86l.573.819.014-.009.013-.01-.6-.8zm-1.44 12.6l-.972.233.002.01.97-.243zm2.52 9.9l-.968.25.002.008.966-.258zm3.06 10.8l-.958.287.005.015.004.014.949-.316zm3.24 8.64l-.914.406.715 1.608 1.016-1.437-.817-.577zm15.84-18.18l.675.738.001-.001-.676-.737zm15.84-13.86l.636.771.006-.004.006-.005-.648-.762zm11.88-10.62l.693.721.001-.001-.694-.72zm38.6 82.8c0 .598-.214 1.315-.748 2.17l1.696 1.06c.666-1.065 1.052-2.148 1.052-3.23h-2zm-.748 2.17c-.428.685-.956.97-1.672.97v2c1.444 0 2.596-.675 3.368-1.91l-1.696-1.06zm-1.672.97c-.401 0-.906-.121-1.533-.434l-.894 1.788c.813.407 1.628.646 2.427.646v-2zm-1.553-.444c-4.398-2.077-9.509-3.778-15.324-5.111l-.446 1.95c5.705 1.307 10.674 2.966 14.916 4.969l.854-1.808zm-15.343-5.115a364.882 364.882 0 00-17.869-3.249l-.31 1.976a362.83 362.83 0 0117.771 3.231l.408-1.958zm-17.866-3.248a382.874 382.874 0 01-17.594-3.232l-.408 1.958a384.679 384.679 0 0017.686 3.248l.316-1.974zm-17.614-3.236c-5.707-1.07-10.678-2.493-14.919-4.26l-.77 1.846c4.399 1.833 9.508 3.29 15.321 4.38l.368-1.966zm-16.212-2.918c.738 1.599 1.492 2.926 2.268 3.961l1.6-1.2c-.664-.885-1.35-2.078-2.052-3.599l-1.816.838zm2.268 3.961c.713.95 1.301 1.775 1.768 2.475l1.664-1.11a58.033 58.033 0 00-1.832-2.565l-1.6 1.2zm1.832 2.56c.577.693 1.024 1.311 1.351 1.854l1.714-1.028c-.393-.657-.906-1.359-1.529-2.106l-1.536 1.28zm1.314 1.787c.271.542.434 1.278.434 2.253h2c0-1.185-.197-2.249-.646-3.147l-1.788.894zm.434 2.253c0 .669-.227 1.056-.635 1.328l1.11 1.664c1.032-.688 1.525-1.741 1.525-2.992h-2zm-.635 1.328c-.589.393-1.119.552-1.605.552v2c.954 0 1.864-.321 2.715-.888l-1.11-1.664zm-1.605.552c-1.02 0-2.331-.649-3.949-2.382l-1.462 1.364c1.742 1.867 3.551 3.018 5.411 3.018v-2zm-3.924-2.355c-1.513-1.746-3.101-3.977-4.762-6.705l-1.708 1.04c1.699 2.792 3.351 5.121 4.958 6.975l1.512-1.31zm-4.762-6.705c-1.663-2.733-3.33-5.768-5-9.107l-1.788.894c1.69 3.381 3.383 6.466 5.08 9.253l1.708-1.04zm-4.981-9.069a315.628 315.628 0 01-4.307-10.048l-1.852.754a320.205 320.205 0 004.333 10.112l1.826-.818zm-4.307-10.048a250.277 250.277 0 01-3.406-8.785l-1.88.684c.965 2.654 2.11 5.606 3.434 8.855l1.852-.754zm-3.402-8.772c-.957-2.753-1.605-4.818-1.954-6.214l-1.94.486c.371 1.484 1.043 3.619 2.006 6.386l1.888-.658zm-1.954-6.214l-7.92-31.68-1.94.486 7.92 31.68 1.94-.486zm-7.89-31.437c0-.264.046-.67.161-1.244l-1.962-.392c-.125.626-.199 1.18-.199 1.636h2zm.108-1.069c.157-.392.506-.864 1.152-1.403l-1.28-1.536c-.794.661-1.405 1.389-1.728 2.197l1.856.742zm1.406-2.618a5.752 5.752 0 01-.614-2.613h-2a7.75 7.75 0 00.826 3.507l1.788-.894zM117.84 175c0-2.919 1.651-5.714 5.344-8.368l-1.168-1.624c-3.987 2.866-6.176 6.191-6.176 9.992h2zm5.36-8.38c3.745-2.809 8.272-5.165 13.595-7.058l-.67-1.884c-5.477 1.947-10.19 4.391-14.125 7.342l1.2 1.6zm13.607-7.062c5.463-2.019 11.166-3.564 17.11-4.634l-.354-1.968c-6.056 1.09-11.873 2.665-17.45 4.726l.694 1.876zm17.11-4.634c5.965-1.074 11.002-1.604 15.123-1.604v-2c-4.279 0-9.442.55-15.477 1.636l.354 1.968zm15.123-1.604c1.148 0 2.908.116 5.3.355l.2-1.99c-2.408-.241-4.248-.365-5.5-.365v2zm5.35.359c2.315.116 4.571.52 6.769 1.215l.602-1.908a28.857 28.857 0 00-7.271-1.305l-.1 1.998zm6.783 1.219c2.267.68 4.169 1.748 5.727 3.195l1.36-1.466c-1.802-1.673-3.98-2.885-6.513-3.645l-.574 1.916zm5.782 3.243c1.527 1.221 2.325 2.953 2.325 5.339h2c0-2.894-1.002-5.242-3.075-6.901l-1.25 1.562zm2.325 5.339c0 2.181-1.152 4.839-3.735 8.008l1.55 1.264c2.697-3.311 4.185-6.413 4.185-9.272h-2zm-3.749 8.026c-2.481 3.189-5.623 6.571-9.435 10.144l1.368 1.46c3.868-3.627 7.086-7.085 9.645-10.376l-1.578-1.228zm-9.435 10.144a417.05 417.05 0 01-12.39 11.134l1.308 1.512a417.769 417.769 0 0012.45-11.186l-1.368-1.46zm-12.378 11.123a192.343 192.343 0 00-12.485 11.4l1.414 1.414a190.094 190.094 0 0112.355-11.28l-1.284-1.534zm-12.474 11.389c-3.873 3.751-7.151 7.453-9.83 11.107l1.612 1.182c2.601-3.546 5.803-7.164 9.61-10.853l-1.392-1.436zm-9.834 11.111c-2.592 3.58-3.97 7.023-3.97 10.307h2c0-2.716 1.142-5.753 3.59-9.133l-1.62-1.174zm-3.97 10.307c0 2.6 1.108 4.892 3.196 6.85l1.368-1.46c-1.752-1.642-2.564-3.43-2.564-5.39h-2zm3.244 6.892c2.126 1.75 4.729 3.295 7.793 4.643l.806-1.83c-2.936-1.292-5.373-2.747-7.327-4.357l-1.272 1.544zm7.793 4.643c3.049 1.342 6.335 2.497 9.857 3.469l.532-1.928c-3.438-.948-6.632-2.073-9.583-3.371l-.806 1.83zm9.865 3.471c3.619.965 7.003 1.751 10.149 2.356l.378-1.964c-3.094-.595-6.43-1.369-10.011-2.324l-.516 1.932zm10.156 2.357c3.245.601 6.015 1.083 8.306 1.445l.312-1.976a322.495 322.495 0 01-8.254-1.435l-.364 1.966zm8.362 1.452c2.375.237 3.877.365 4.42.365v-2c-.417 0-1.795-.112-4.22-.355l-.2 1.99zm4.42.365c1.508 0 4.166.176 8.007.536l.186-1.992c-3.839-.36-6.581-.544-8.193-.544v2zm8.007.536a81.197 81.197 0 0111.557 1.956l.472-1.944a83.226 83.226 0 00-11.843-2.004l-.186 1.992zm11.591 1.963c4.021.828 7.545 1.947 10.583 3.349l.838-1.816c-3.202-1.478-6.878-2.639-11.017-3.491l-.404 1.958zm10.583 3.349c2.969 1.37 4.099 2.965 4.099 4.672h2c0-2.853-1.99-4.978-5.261-6.488l-.838 1.816zM182.82 163.66c0-1.238-.644-2.234-1.679-2.974l-1.162 1.628c.645.46.841.904.841 1.346h2zm-1.609-2.919c-.991-.85-2.287-1.446-3.828-1.831l-.486 1.94c1.339.335 2.323.819 3.012 1.409l1.302-1.518zm-3.729-1.801c-1.423-.517-3.016-.832-4.771-.957l-.142 1.994c1.605.115 3.012.4 4.229.843l.684-1.88zm-4.69-.948a31.688 31.688 0 00-4.832-.372v2c1.508 0 3.018.116 4.528.348l.304-1.976zm-4.832-.372c-2.493 0-5.448.373-8.85 1.102l.42 1.956c3.318-.711 6.123-1.058 8.43-1.058v-2zm-8.85 1.102a119.413 119.413 0 00-10.346 2.723l.592 1.91a117.011 117.011 0 0110.174-2.677l-.42-1.956zm-10.356 2.726a208.035 208.035 0 00-9.405 3.256l.702 1.872a208.1 208.1 0 019.315-3.224l-.612-1.904zm-9.405 3.256c-2.889 1.083-5.043 2.003-6.428 2.758l.958 1.756c1.255-.685 3.301-1.565 6.172-2.642l-.702-1.872zm-6.445 2.768a72.03 72.03 0 00-7.484 4.928l1.2 1.6a70.071 70.071 0 017.276-4.792l-.992-1.736zm-7.457 4.909c-2.472 1.73-4.027 3.671-4.027 5.859h2c0-1.172.845-2.591 3.173-4.221l-1.146-1.638zm-4.027 5.859c0 .771.565 1.272.985 1.552l1.11-1.664a1.142 1.142 0 01-.127-.095c-.027-.025-.035-.036-.033-.033a.259.259 0 01.035.069c.017.044.03.103.03.171h-2zm.985 1.552c.01.006.023.015.041.057a.968.968 0 01.054.371h2c0-.793-.247-1.6-.985-2.092l-1.11 1.664zm.095.428c0 .468.11 1.202.288 2.125.184.951.458 2.182.82 3.688l1.944-.466a87.91 87.91 0 01-.8-3.602c-.182-.937-.252-1.493-.252-1.745h-2zm1.11 5.823c.721 2.883 1.561 6.185 2.522 9.907l1.936-.5a1375.83 1375.83 0 01-2.518-9.893l-1.94.486zm2.524 9.915c.962 3.61 1.985 7.22 3.068 10.829l1.916-.574a365.774 365.774 0 01-3.052-10.771l-1.932.516zm3.077 10.858c1.205 3.615 2.297 6.529 3.275 8.73l1.828-.812c-.942-2.119-2.01-4.965-3.205-8.55l-1.898.632zm5.006 8.901c4.883-6.908 10.116-12.913 15.698-18.019l-1.35-1.476c-5.698 5.214-11.025 11.329-15.982 18.341l1.634 1.154zm15.699-18.02c5.75-5.271 11.017-9.879 15.8-13.826l-1.272-1.542c-4.817 3.973-10.11 8.605-15.88 13.894l1.352 1.474zm15.812-13.835c4.809-4.088 8.785-7.642 11.925-10.661l-1.386-1.442c-3.1 2.981-7.044 6.507-11.835 10.579l1.296 1.524zm11.926-10.662c3.317-3.194 5.166-6.379 5.166-9.54h-2c0 2.359-1.391 5.054-4.554 8.1l1.388 1.44z"/>
  <path fill="#EDC13E" d="M238.58 183.46c.12.24.24.42.36.54.12 0 .18.12.18.36 0 .72-1.5 2.1-4.5 4.14-3 1.92-6.72 4.14-11.16 6.66-4.44 2.4-9.12 4.86-14.04 7.38-4.92 2.4-9.3 4.38-13.14 5.94 0 .24-.12 1.02-.36 2.34-.24 1.32-.36 2.16-.36 2.52v3.42c0 2.76.42 5.52 1.26 8.28.84 2.64 2.1 5.04 3.78 7.2 1.8 2.16 3.96 3.9 6.48 5.22 2.52 1.32 5.46 1.98 8.82 1.98 1.44 0 3.18-.24 5.22-.72 2.16-.6 4.2-1.38 6.12-2.34 2.04-1.08 3.84-2.34 5.4-3.78 1.56-1.44 2.52-3.06 2.88-4.86 1.44.12 2.28.54 2.52 1.26.36.72.54 1.2.54 1.44 0 3.12-.78 5.82-2.34 8.1-1.44 2.16-3.3 3.96-5.58 5.4a28.3 28.3 0 01-7.02 3.06c-2.4.6-4.56.9-6.48.9-10.32 0-17.82-2.88-22.5-8.64-4.68-5.76-7.02-13.32-7.02-22.68 0-.48.12-1.56.36-3.24.24-1.68.36-2.82.36-3.42 0-.12-.24-.24-.72-.36-.48-.24-1.02-.48-1.62-.72-.48-.24-.96-.6-1.44-1.08-.36-.6-.54-1.38-.54-2.34s.36-1.74 1.08-2.34c.72-.6 1.56-1.14 2.52-1.62l1.8-1.08c1.08-4.56 2.34-8.94 3.78-13.14 1.56-4.32 3.48-8.64 5.76-12.96-.96 0-1.98-.12-3.06-.36s-1.62-1.08-1.62-2.52c0-1.68.96-3.54 2.88-5.58 2.04-2.04 4.32-3.96 6.84-5.76 2.64-1.8 5.22-3.3 7.74-4.5 2.52-1.32 4.32-1.98 5.4-1.98.48 0 .78.12.9.36.24.12.6.18 1.08.18.96 0 2.16-.18 3.6-.54 1.56-.36 3.18-.78 4.86-1.26 1.68-.48 3.24-.9 4.68-1.26 1.56-.36 2.82-.54 3.78-.54 1.08 0 1.86.36 2.34 1.08.6.72.9 1.5.9 2.34 0 .96-.6 1.68-1.8 2.16-1.2.36-2.28.66-3.24.9-3.36.6-6.9 1.68-10.62 3.24-3.6 1.44-6.96 3.06-10.08 4.86-1.2 1.32-2.64 3.24-4.32 5.76-1.68 2.4-3.3 5.16-4.86 8.28-1.56 3.12-3 6.36-4.32 9.72-1.2 3.36-1.98 6.54-2.34 9.54l3.06-1.44c9.24-4.44 16.74-7.92 22.5-10.44 5.88-2.52 10.44-3.78 13.68-3.78.6 0 1.14.24 1.62.72z"/>
  <path fill="#F4F4F4" d="M238.58 183.46l.894-.447-.072-.145-.115-.115-.707.707zm.36.54l-.707.707.293.293h.414v-1zm-4.32 4.5l.539.842.012-.007.011-.008-.562-.827zm-11.16 6.66l.476.88.009-.005.009-.005-.494-.87zm-14.04 7.38l.438.899.009-.005.009-.004-.456-.89zm-13.14 5.94l-.376-.926-.624.253v.673h1zm-.36 2.34l.984.179-.984-.179zm.9 14.22l-.957.291.004.012.953-.303zm3.78 7.2l-.789.614.01.013.011.013.768-.64zm20.52 6.48l.229.973.019-.004.02-.005-.268-.964zm6.12-2.34l.447.894.011-.005.01-.005-.468-.884zm5.4-3.78l-.678-.735.678.735zm2.88-4.86l.083-.997-.889-.074-.175.875.981.196zm2.52 1.26l-.949.316.023.068.032.063.894-.447zm-1.8 9.54l-.825-.565-.007.01.832.555zm-5.58 5.4l.521.853.007-.004.006-.004-.534-.845zm-7.02 3.06l.243.97.016-.004.016-.004-.275-.962zm-28.98-7.74l.776-.631-.776.631zm-7.02-29.7l-.447.894.098.05.106.026.243-.97zm-1.62-.72l-.447.894.037.019.039.015.371-.928zm-1.44-1.08l-.857.514.063.106.087.087.707-.707zm.54-4.68l-.64-.768.64.768zm2.52-1.62l.447.894.035-.017.032-.02-.514-.857zm1.8-1.08l.514.857.362-.216.097-.411-.973-.23zm3.78-13.14l-.941-.34-.002.008-.003.008.946.324zm5.76-12.96l.884.467.775-1.467h-1.659v1zm-1.8-8.46l-.707-.707-.011.011-.01.011.728.685zm6.84-5.76l-.563-.826-.009.006-.009.006.581.814zm7.74-4.5l.43.903.017-.008.017-.009-.464-.886zm6.3-1.62l-.894.447.149.298.298.149.447-.894zm4.68-.36l-.225-.974-.009.002-.009.002.243.97zm9.54-2.52l-.225-.974-.009.002-.009.002.243.97zm6.12.54l-.832.555.03.044.034.041.768-.64zm-.9 4.5l.287.958.043-.013.041-.017-.371-.928zm-3.24.9l.176.984.033-.006.034-.008-.243-.97zm-10.62 3.24l.371.928.008-.003.008-.003-.387-.922zm-10.08 4.86l-.5-.866-.135.078-.105.115.74.673zm-4.32 5.76l.819.573.007-.009.006-.009-.832-.555zm-9.18 18l-.931-.366-.005.015-.006.015.942.336zm-2.34 9.54l-.993-.119-.215 1.793 1.634-.769-.426-.905zm3.06-1.44l.426.905.007-.004-.433-.901zm22.5-10.44l-.394-.919-.007.003.401.916zm14.406-2.613c.143.287.32.573.547.8l1.414-1.414a1.251 1.251 0 01-.173-.28l-1.788.894zM238.94 185a.865.865 0 01-.476-.145.834.834 0 01-.283-.318c-.075-.149-.061-.246-.061-.177h2c0-.171-.016-.448-.151-.717a1.138 1.138 0 00-1.029-.643v2zm-.82-.64c0-.137.055-.128-.095.083-.131.183-.357.434-.707.756-.697.641-1.775 1.464-3.26 2.474l1.124 1.654c1.515-1.03 2.687-1.917 3.49-2.656.4-.368.737-.725.98-1.066.225-.314.468-.748.468-1.245h-2zm-4.039 3.298c-2.98 1.907-6.684 4.118-11.115 6.632l.988 1.74c4.449-2.526 8.185-4.755 11.205-6.688l-1.078-1.684zm-11.097 6.622a713.342 713.342 0 01-14.02 7.37l.912 1.78a718.109 718.109 0 0014.06-7.39l-.952-1.76zm-14.002 7.361c-4.906 2.393-9.265 4.363-13.078 5.913l.752 1.852c3.867-1.57 8.268-3.56 13.202-5.967l-.876-1.798zm-13.702 6.839c0-.002-.001.042-.016.164-.013.112-.033.26-.062.449-.058.377-.147.892-.266 1.548l1.968.358c.121-.664.212-1.199.274-1.602.058-.372.102-.706.102-.917h-2zm-.344 2.161c-.235 1.291-.376 2.23-.376 2.699h2c0-.251.099-.992.344-2.341l-1.968-.358zm-.376 2.699v3.42h2v-3.42h-2zm0 3.42c0 2.863.436 5.721 1.303 8.571l1.914-.582c-.813-2.67-1.217-5.332-1.217-7.989h-2zm1.307 8.583a23.958 23.958 0 003.944 7.511l1.578-1.228a22 22 0 01-3.616-6.889l-1.906.606zm3.965 7.537a22.062 22.062 0 006.784 5.466l.928-1.772a20.094 20.094 0 01-6.176-4.974l-1.536 1.28zm6.784 5.466c2.687 1.407 5.792 2.094 9.284 2.094v-2c-3.228 0-6.003-.633-8.356-1.866l-.928 1.772zm9.284 2.094c1.543 0 3.365-.256 5.449-.747l-.458-1.946c-1.996.469-3.654.693-4.991.693v2zm5.488-.756a35.03 35.03 0 006.299-2.41l-.894-1.788c-1.86.93-3.84 1.687-5.941 2.27l.536 1.928zm6.32-2.42c2.11-1.117 3.982-2.426 5.61-3.929l-1.356-1.47c-1.492 1.377-3.22 2.588-5.19 3.631l.936 1.768zm5.61-3.929c1.69-1.56 2.775-3.361 3.183-5.399l-1.962-.392c-.312 1.562-1.147 3.001-2.577 4.321l1.356 1.47zm2.119-4.598c1.411.117 1.627.496 1.654.579l1.898-.632c-.453-1.357-1.917-1.818-3.386-1.941l-.166 1.994zm1.709.71c.172.344.29.61.363.804.036.097.057.164.067.207.012.048.004.035.004-.018h2c0-.313-.103-.637-.199-.891-.107-.286-.259-.62-.447-.996l-1.788.894zm.434.993c0 2.945-.733 5.443-2.165 7.535l1.65 1.13c1.688-2.468 2.515-5.37 2.515-8.665h-2zm-2.172 7.545c-1.359 2.039-3.116 3.741-5.282 5.11l1.068 1.69c2.394-1.511 4.357-3.409 5.878-5.69l-1.664-1.11zm-5.269 5.102a27.312 27.312 0 01-6.774 2.951l.55 1.924a29.289 29.289 0 007.266-3.169l-1.042-1.706zm-6.742 2.943c-2.342.585-4.418.87-6.237.87v2c2.021 0 4.265-.315 6.723-.93l-.486-1.94zm-6.237.87c-10.143 0-17.3-2.826-21.724-8.271l-1.552 1.262c4.936 6.075 12.779 9.009 23.276 9.009v-2zm-21.724-8.271c-4.501-5.539-6.796-12.857-6.796-22.049h-2c0 9.528 2.385 17.33 7.244 23.311l1.552-1.262zm-6.796-22.049c0-.394.107-1.398.35-3.099l-1.98-.282c-.237 1.659-.37 2.815-.37 3.381h2zm.35-3.099c.239-1.671.37-2.879.37-3.561h-2c0 .518-.109 1.59-.35 3.279l1.98.282zm.37-3.561c0-.389-.199-.658-.338-.797a1.496 1.496 0 00-.395-.277 3.637 3.637 0 00-.744-.256l-.486 1.94c.218.055.314.094.336.104.013.007-.048-.02-.125-.097a.873.873 0 01-.248-.617h2zm-1.273-1.254a22.102 22.102 0 00-1.696-.754l-.742 1.856c.579.232 1.093.461 1.544.686l.894-1.788zm-1.62-.72c-.362-.182-.757-.47-1.18-.893l-1.414 1.414c.537.537 1.102.969 1.7 1.267l.894-1.788zm-1.03-.7c-.238-.398-.397-.982-.397-1.826h-2c0 1.076.201 2.052.683 2.854l1.714-1.028zm-.397-1.826c0-.672.234-1.167.72-1.572l-1.28-1.536c-.954.795-1.44 1.86-1.44 3.108h2zm.72-1.572a12.027 12.027 0 012.327-1.494l-.894-1.788a13.962 13.962 0 00-2.713 1.746l1.28 1.536zm2.394-1.531l1.8-1.08-1.028-1.714-1.8 1.08 1.028 1.714zm2.259-1.707a138.97 138.97 0 013.753-13.046l-1.892-.648a140.908 140.908 0 00-3.807 13.234l1.946.46zm3.748-13.03c1.543-4.274 3.444-8.552 5.703-12.833l-1.768-.934c-2.301 4.359-4.24 8.721-5.817 13.087l1.882.68zm4.819-14.3c-.877 0-1.824-.11-2.843-.336l-.434 1.952c1.141.254 2.234.384 3.277.384v-2zm-2.843-.336c-.313-.07-.479-.201-.591-.375-.13-.202-.246-.56-.246-1.169h-2c0 .831.154 1.613.564 2.251.428.666 1.072 1.075 1.839 1.245l.434-1.952zm-.837-1.544c0-1.301.754-2.924 2.608-4.895l-1.456-1.37c-1.986 2.109-3.152 4.206-3.152 6.265h2zm2.587-4.873c1.998-1.998 4.236-3.883 6.714-5.653l-1.162-1.628c-2.562 1.83-4.884 3.785-6.966 5.867l1.414 1.414zm6.696-5.641c2.604-1.775 5.139-3.248 7.607-4.423l-.86-1.806c-2.572 1.225-5.197 2.752-7.873 4.577l1.126 1.652zm7.641-4.44c1.238-.649 2.276-1.122 3.12-1.432.862-.316 1.451-.434 1.816-.434v-2c-.715 0-1.566.212-2.504.556-.956.35-2.078.867-3.36 1.538l.928 1.772zm4.936-1.866c.08 0 .136.005.174.011.038.006.049.011.04.007a.336.336 0 01-.089-.056.499.499 0 01-.119-.155l1.788-.894c-.393-.787-1.243-.913-1.794-.913v2zm.453.254c.449.225.996.286 1.527.286v-2c-.429 0-.602-.059-.633-.074l-.894 1.788zm1.527.286c1.073 0 2.361-.2 3.843-.57l-.486-1.94c-1.398.35-2.51.51-3.357.51v2zm3.825-.566a98.74 98.74 0 004.91-1.272l-.55-1.924a96.506 96.506 0 01-4.81 1.248l.45 1.948zm4.91-1.272c1.671-.478 3.22-.895 4.648-1.252l-.486-1.94a148.61 148.61 0 00-4.712 1.268l.55 1.924zm4.63-1.248c1.528-.352 2.704-.514 3.555-.514v-2c-1.069 0-2.413.198-4.005.566l.45 1.948zm3.555-.514c.84 0 1.26.263 1.508.635l1.664-1.11c-.712-1.068-1.852-1.525-3.172-1.525v2zm1.572.72c.468.563.668 1.121.668 1.7h2c0-1.101-.4-2.103-1.132-2.98l-1.536 1.28zm.668 1.7a.914.914 0 01-.218.62c-.161.193-.452.411-.953.612l.742 1.856c.699-.279 1.308-.661 1.747-1.188a2.905 2.905 0 00.682-1.9h-2zm-1.087 1.202a72.422 72.422 0 01-3.196.888l.486 1.94a73.792 73.792 0 003.284-.912l-.574-1.916zm-3.129.874c-3.444.615-7.055 1.718-10.831 3.302l.774 1.844c3.664-1.536 7.133-2.593 10.409-3.178l-.352-1.968zm-10.815 3.296c-3.641 1.456-7.044 3.096-10.209 4.922l1 1.732c3.075-1.774 6.392-3.374 9.951-4.798l-.742-1.856zm-10.449 5.115c-1.249 1.374-2.721 3.341-4.412 5.878l1.664 1.11c1.669-2.503 3.077-4.376 4.228-5.642l-1.48-1.346zm-4.399 5.86c-1.713 2.446-3.357 5.25-4.935 8.406l1.788.894c1.542-3.084 3.138-5.8 4.785-8.154l-1.638-1.146zm-4.935 8.406a120.213 120.213 0 00-4.357 9.801l1.862.732a117.988 117.988 0 014.283-9.639l-1.788-.894zm-4.368 9.831c-1.22 3.418-2.021 6.671-2.391 9.757l1.986.238c.35-2.914 1.109-6.021 2.289-9.323l-1.884-.672zm-.972 10.781l3.06-1.44-.852-1.81-3.06 1.44.852 1.81zm3.067-1.444c9.235-4.437 16.723-7.912 22.468-10.425l-.802-1.832c-5.775 2.527-13.287 6.012-22.532 10.455l.866 1.802zm22.461-10.422c5.853-2.508 10.258-3.699 13.286-3.699v-2c-3.452 0-8.167 1.329-14.074 3.861l.788 1.838zm13.286-3.699c.299 0 .594.108.913.427l1.414-1.414c-.641-.641-1.426-1.013-2.327-1.013v2z"/>
  <g>
    <path fill="#A7D453" d="M285.72 254.92c.12.48.18.9.18 1.26v1.08c0 1.2-.3 2.04-.9 2.52-.48.48-1.5.72-3.06.72-1.44 0-2.4-.24-2.88-.72-.72-.72-1.68-2.58-2.88-5.58s-2.46-6.54-3.78-10.62c-1.32-4.08-2.64-8.46-3.96-13.14-1.2-4.68-2.28-9.12-3.24-13.32-1.32.6-3.12 1.26-5.4 1.98-2.28.6-4.62 1.2-7.02 1.8-2.76.6-5.64 1.26-8.64 1.98-1.08 5.16-1.92 9.6-2.52 13.32-.48 3.6-.96 6.6-1.44 9-.36 2.28-.9 3.96-1.62 5.04-.6 1.2-1.62 1.8-3.06 1.8-.96 0-1.8-.54-2.52-1.62s-1.08-2.7-1.08-4.86c0-1.08.3-3.6.9-7.56.6-3.96 1.26-8.34 1.98-13.14.72-4.92 1.44-9.78 2.16-14.58.72-4.8 1.2-8.58 1.44-11.34.12-1.44.48-3.78 1.08-7.02.72-3.24 1.44-6.54 2.16-9.9.72-3.48 1.44-6.6 2.16-9.36.72-2.76 1.2-4.32 1.44-4.68 1.92-4.44 3.12-9 3.6-13.68.6-4.68 1.02-8.94 1.26-12.78.36-3.96.9-7.14 1.62-9.54.72-2.52 2.22-3.78 4.5-3.78.6 0 1.2.48 1.8 1.44.72.96 1.38 2.1 1.98 3.42.6 1.32 1.08 2.64 1.44 3.96.36 1.2.6 2.16.72 2.88.12.72.24 2.16.36 4.32.24 2.16.42 4.56.54 7.2.24 2.52.42 5.04.54 7.56.24 2.4.42 4.26.54 5.58.36 3.96.9 8.4 1.62 13.32.84 4.92 1.68 9.54 2.52 13.86.84 4.32 1.62 7.98 2.34 10.98.72 2.88 1.26 4.32 1.62 4.32.48 0 1.08-.12 1.8-.36.84-.24 1.62-.36 2.34-.36.96 0 1.44.48 1.44 1.44s-.24 1.74-.72 2.34c-.48.6-1.02 1.14-1.62 1.62-.48.48-.96.9-1.44 1.26-.36.36-.54.78-.54 1.26 0 .96.54 3.42 1.62 7.38l2.88 10.62c.24.96.78 2.58 1.62 4.86.84 2.28 1.68 4.68 2.52 7.2.96 2.4 1.8 4.62 2.52 6.66.72 2.16 1.08 3.48 1.08 3.96zm-39.96-41.22c.72 0 2.04-.18 3.96-.54 1.92-.48 3.9-1.02 5.94-1.62 2.04-.6 3.84-1.2 5.4-1.8 1.56-.6 2.34-1.08 2.34-1.44 0-.36-.24-1.26-.72-2.7-.36-1.56-.84-3.48-1.44-5.76l-1.62-8.1c-.6-3-1.14-6.18-1.62-9.54-.24-2.16-.54-5.1-.9-8.82-.36-3.72-.72-7.38-1.08-10.98-.36-3.72-.66-6.9-.9-9.54l-.36-3.96-.54 2.7c-.36 1.68-.78 3.6-1.26 5.76-.36 2.04-.72 4.02-1.08 5.94-.24 1.8-.36 2.82-.36 3.06v5.04c0 .24-.18 1.32-.54 3.24-.24 1.8-.6 4.14-1.08 7.02-.48 2.76-1.02 5.82-1.62 9.18-.48 3.24-.96 6.36-1.44 9.36-.48 3-.9 5.7-1.26 8.1-.24 2.28-.36 3.84-.36 4.68 0 .48.18.72.54.72z"/>
    <path fill="#F4F4F4" d="M285.72 254.92h-1v.123l.03.12.97-.243zm-.72 4.86l-.625-.781-.043.035-.039.039.707.707zm-5.94 0l-.707.707.707-.707zm-2.88-5.58l.928-.371-.928.371zm-3.78-10.62l-.951.308.951-.308zm-3.96-13.14l-.969.248.003.012.004.011.962-.271zm-3.24-13.32l.975-.223-.273-1.194-1.116.507.414.91zm-5.4 1.98l.254.967.024-.006.023-.007-.301-.954zm-7.02 1.8l.212.977.016-.003.015-.004-.243-.97zm-8.64 1.98l-.233-.972-.616.147-.13.62.979.205zm-2.52 13.32l-.987-.159-.002.013-.002.014.991.132zm-1.44 9l-.981-.196-.004.02-.003.02.988.156zm-1.62 5.04l-.832-.555-.035.052-.027.056.894.447zm-5.58.18l.832-.555-.832.555zM232.8 238l-.989-.15.989.15zm1.98-13.14l.989.148v-.003l-.989-.145zm3.6-25.92l.996.087.001-.004-.997-.083zm1.08-7.02l-.976-.217-.004.017-.003.018.983.182zm2.16-9.9l.978.21.001-.007-.979-.203zm2.16-9.36l.968.252-.968-.252zm1.44-4.68l.832.555.05-.075.036-.083-.918-.397zm3.6-13.68l-.992-.127-.001.012-.002.013.995.102zm1.26-12.78l-.996-.091-.001.015-.001.014.998.062zm1.62-9.54l.958.287.004-.012-.962-.275zm6.3-2.34l-.848.53.023.036.025.034.8-.6zm1.98 3.42l-.91.414.91-.414zm1.44 3.96l-.965.263.004.012.003.012.958-.287zm.72 2.88l-.986.164.986-.164zm.36 4.32l-.998.055.001.028.003.027.994-.11zm.54 7.2l-.999.045.001.025.003.025.995-.095zm.54 7.56l-.999.048.001.026.003.025.995-.099zm.54 5.58l.996-.091-.996.091zm1.62 13.32l-.989.145.001.012.002.011.986-.168zm2.52 13.86l-.982.191.982-.191zm2.34 10.98l-.972.233.002.01.97-.243zm3.42 3.96l-.275-.962-.021.006-.02.007.316.949zm3.06 3.42l.781.625-.781-.625zm-1.62 1.62l-.625-.781-.043.035-.039.039.707.707zm-1.44 1.26l-.6-.8-.057.043-.05.05.707.707zm1.08 8.64l.965-.262v-.001l-.965.263zm2.88 10.62l.97-.243-.002-.009-.003-.01-.965.262zm1.62 4.86l.938-.346-.938.346zm2.52 7.2l-.949.316.01.028.011.027.928-.371zm2.52 6.66l.949-.316-.003-.009-.003-.008-.943.333zm-34.92-37.8l.184.983.03-.006.029-.007-.243-.97zm5.94-1.62l-.282-.959.282.959zm5.4-1.8l-.359-.933.359.933zm1.62-4.14l-.974.225.01.046.015.045.949-.316zm-1.44-5.76l-.981.196.006.03.008.028.967-.254zm-1.62-8.1l-.981.196.981-.196zM258 182.2l-.994.11.002.016.002.015.99-.141zm-.9-8.82l-.995.096.995-.096zm-1.08-10.98l-.995.096v.003l.995-.099zm-.9-9.54l.996-.091-.996.091zm-.36-3.96l.996-.091-1.977-.105.981.196zm-.54 2.7l.978.21.003-.014-.981-.196zm-1.26 5.76l-.976-.217-.005.022-.004.021.985.174zm-1.08 5.94l-.983-.184-.005.026-.003.026.991.132zm-.9 11.34l-.983-.184-.005.026-.003.026.991.132zm-1.08 7.02l.985.171.001-.007-.986-.164zm-1.62 9.18l-.984-.176-.003.015-.002.014.989.147zm-1.44 9.36l.987.158-.987-.158zm-1.26 8.1l-.989-.148-.003.021-.003.022.995.105zm39.17 46.863c.107.428.15.763.15 1.017h2c0-.466-.077-.971-.21-1.503l-1.94.486zm.15 1.017V257.26h2v-.001-.002-.001-.002-.001-.001-.002-.001-.002-.001-.002-.001-.002-.001-.001-.002-.001-.002-.001-.002-.001-.002-.001-.002-.001-.001-.002-.001-.002-.001-.002-.001-.002-.001-.002-.001-.002-.001-.002-.001-.002-.001-.002-.002-.001-.002-.001-.002-.001-.002-.001-.002-.001-.002-.001-.002-.002-.001-.002-.001-.002-.001-.002-.002-.001-.002-.001-.002-.002-.001-.002-.001-.002-.002-.001-.002-.001-.002-.002-.001-.002-.002-.001-.002-.001-.002-.002-.001-.002-.002-.001-.002-.002-.001-.002-.002-.001-.002-.002-.001-.002-.002-.001-.002-.002-.001-.002-.002-.002-.001-.002-.002-.001-.002-.002-.002-.001-.002-.002-.002-.001-.002-.002-.001-.002-.002-.002-.001-.002-.002-.002-.002-.001-.002-.002-.002-.001-.002-.002-.002-.002-.001-.002-.002-.002-.002-.001-.002-.002-.002-.002-.001-.002-.002-.002-.002-.002-.001-.002V257v-.002-.002-.002-.002-.001-.002-.002-.002-.002-.002-.002-.002-.001-.002-.002-.002-.002-.002-.002-.002-.002-.001-.002-.002-.002-.002-.002-.002-.002-.002-.002-.002-.002-.001-.002-.002-.002-.002-.002-.002-.002-.002-.002-.002-.002-.002-.002-.002-.002-.002-.002-.002-.002-.002-.002-.002-.002-.002-.002-.002-.002-.002-.002-.002-.002-.002-.002-.002-.002-.002-.002-.002-.002-.002-.002-.002-.002-.002-.003-.002-.002-.002-.002-.002-.002-.002-.002-.002-.002-.002-.002-.003-.002-.002-.002-.002-.002-.002-.002-.002-.003-.002-.002-.002-.002-.002-.002-.003-.002-.002-.002-.002-.002-.002-.003-.002-.002-.002-.002-.002-.003-.002-.002-.002-.002-.003-.002-.002-.002-.002-.003-.002-.002-.002-.002-.003-.002-.002-.002-.002-.003-.002-.002-.002-.003-.002-.002-.002-.003-.002-.002-.002-.003-.002-.002-.003-.002-.002-.002-.003-.002-.002-.002-.003-.002-.002-.003-.002-.002-.003-.002-.002-.003-.002-.002-.003-.002-.002-.003-.002-.002-.003-.002-.002-.003-.002-.002-.003-.002-.002-.003-.002-.003-.002-.002-.003-.002-.002-.003-.002-.003-.002-.002-.003-.002-.003-.002-.002-.003-.002-.003-.002-.003-.002-.002-.003-.002-.003-.002-.003-.002-.003-.002-.002-.003-.002-.003-.002-.003-.002-.003-.002-.003-.002-.003-.002-.003-.002-.003-.002-.003-.002-.003-.002-.003-.002-.003-.002-.003-.002-.003-.002-.003-.003-.002-.003-.002-.003-.002-.003-.002-.003-.003-.002-.003-.002-.003-.002-.003-.003-.002-.003-.002-.003-.003-.002-.003-.002-.003-.003-.002-.003-.002-.003-.003-.002-.003-.003-.002-.003-.003-.002-.003-.002-.003-.003-.002-.003-.003-.002-.003-.003-.002-.003-.003-.003-.002-.003-.003-.002-.003-.003-.002-.003-.003-.003-.002-.003-.003-.002-.003-.003-.003-.002-.003-.003-.003-.002-.003-.003-.003-.002-.003-.003-.003-.002-.003-.003-.003-.002-.003-.003-.003-.003-.002-.003-.003-.003-.003-.002-.003-.003h-2zm0 1.08c0 1.068-.27 1.535-.525 1.739l1.25 1.562c.945-.756 1.275-1.969 1.275-3.301h-2zm-.607 1.813c-.055.055-.227.175-.647.274-.408.096-.97.153-1.706.153v2c.824 0 1.552-.063 2.164-.207.6-.141 1.178-.381 1.603-.806l-1.414-1.414zm-2.353.427c-.672 0-1.184-.057-1.557-.15-.38-.095-.55-.211-.616-.277l-1.414 1.414c.414.414.964.658 1.544.803.587.147 1.275.21 2.043.21v-2zm-2.173-.427c-.245-.245-.607-.773-1.078-1.687-.46-.89-.987-2.073-1.581-3.557l-1.856.742c.606 1.516 1.159 2.763 1.659 3.733.489.946.967 1.708 1.442 2.183l1.414-1.414zm-2.659-5.244c-1.189-2.974-2.441-6.492-3.757-10.557l-1.902.616c1.324 4.095 2.592 7.657 3.803 10.683l1.856-.742zm-3.757-10.557a362.436 362.436 0 01-3.949-13.103l-1.924.542a362.159 362.159 0 003.971 13.177l1.902-.616zm-3.942-13.08a522.79 522.79 0 01-3.234-13.295l-1.95.446a522.569 522.569 0 003.246 13.345l1.938-.496zm-4.623-13.982c-1.267.576-3.024 1.222-5.287 1.936l.602 1.908c2.297-.726 4.14-1.4 5.513-2.024l-.828-1.82zm-5.24 1.923a580.666 580.666 0 01-7.009 1.797l.486 1.94a594.044 594.044 0 007.031-1.803l-.508-1.934zm-6.978 1.79a406.12 406.12 0 00-8.661 1.985l.466 1.944a420.564 420.564 0 018.619-1.975l-.424-1.954zm-9.407 2.752c-1.082 5.17-1.925 9.626-2.528 13.366l1.974.318c.597-3.7 1.434-8.124 2.512-13.274l-1.958-.41zm-2.532 13.393c-.479 3.588-.955 6.565-1.43 8.936l1.962.392c.485-2.429.969-5.452 1.45-9.064l-1.982-.264zm-1.437 8.976c-.352 2.232-.864 3.741-1.464 4.641l1.664 1.11c.84-1.26 1.408-3.111 1.776-5.439l-1.976-.312zm-1.526 4.749c-.226.451-.506.746-.828.935-.326.192-.758.312-1.338.312v2c.86 0 1.658-.18 2.352-.588.698-.411 1.228-1.016 1.602-1.765l-1.788-.894zm-2.166 1.247c-.514 0-1.081-.265-1.688-1.175l-1.664 1.11c.833 1.25 1.946 2.065 3.352 2.065v-2zm-1.688-1.175c-.56-.839-.912-2.225-.912-4.305h-2c0 2.24.368 4.094 1.248 5.415l1.664-1.11zm-.912-4.305c0-.989.285-3.426.889-7.41l-1.978-.3c-.596 3.936-.911 6.539-.911 7.71h2zm.889-7.41c.6-3.961 1.26-8.341 1.98-13.142l-1.978-.296c-.72 4.799-1.38 9.179-1.98 13.138l1.978.3zm1.98-13.145c.72-4.919 1.44-9.778 2.16-14.577l-1.978-.296c-.72 4.801-1.44 9.662-2.16 14.583l1.978.29zm2.16-14.577c.721-4.807 1.205-8.611 1.447-11.401l-1.992-.174c-.238 2.73-.714 6.486-1.433 11.279l1.978.296zm1.448-11.405c.115-1.386.467-3.683 1.066-6.921l-1.966-.364c-.601 3.242-.969 5.625-1.094 7.119l1.994.166zm1.059-6.886c.721-3.243 1.441-6.545 2.162-9.907l-1.956-.42c-.719 3.358-1.439 6.656-2.158 9.893l1.952.434zm2.163-9.914c.718-3.468 1.434-6.571 2.149-9.311l-1.936-.504c-.725 2.779-1.449 5.917-2.171 9.409l1.958.406zm2.149-9.311c.358-1.374.654-2.438.888-3.198.117-.38.215-.674.295-.888.09-.239.131-.307.121-.291l-1.664-1.11c-.13.196-.239.458-.329.699-.1.266-.212.602-.335 1.002-.246.8-.55 1.896-.912 3.282l1.936.504zm1.39-4.535c1.959-4.531 3.186-9.19 3.677-13.975l-1.99-.204c-.469 4.575-1.642 9.036-3.523 13.385l1.836.794zm3.674-13.95c.602-4.697 1.024-8.979 1.266-12.845l-1.996-.124c-.238 3.814-.656 8.052-1.254 12.715l1.984.254zm1.264-12.816c.357-3.928.889-7.034 1.582-9.344l-1.916-.574c-.747 2.49-1.295 5.744-1.658 9.736l1.992.182zm1.586-9.356c.323-1.132.793-1.879 1.346-2.344.541-.455 1.247-.711 2.192-.711v-2c-1.335 0-2.519.374-3.478 1.179-.947.795-1.587 1.938-1.984 3.326l1.924.55zm3.538-3.055c.038 0 .378.052.952.97l1.696-1.06c-.626-1.002-1.486-1.91-2.648-1.91v2zm1 1.04c.669.892 1.294 1.967 1.87 3.234l1.82-.828c-.624-1.373-1.319-2.578-2.09-3.606l-1.6 1.2zm1.87 3.234a25.286 25.286 0 011.385 3.809l1.93-.526a27.267 27.267 0 00-1.495-4.111l-1.82.828zm1.392 3.833c.355 1.184.582 2.098.692 2.757l1.972-.328c-.13-.781-.383-1.787-.748-3.003l-1.916.574zm.692 2.757c.109.657.227 2.043.348 4.211l1.996-.11c-.119-2.152-.241-3.646-.372-4.429l-1.972.328zm.352 4.266c.237 2.135.416 4.513.535 7.135l1.998-.09c-.121-2.658-.302-5.08-.545-7.265l-1.988.22zm.539 7.185c.238 2.504.417 5.008.536 7.513l1.998-.096a160.754 160.754 0 00-.544-7.607l-1.99.19zm.54 7.564c.24 2.4.42 4.256.539 5.572l1.992-.182a700.907 700.907 0 00-.541-5.589l-1.99.199zm.539 5.572c.362 3.981.905 8.44 1.627 13.374l1.978-.29c-.718-4.906-1.255-9.327-1.613-13.266l-1.992.182zm1.63 13.397a619.885 619.885 0 002.524 13.883l1.964-.382a611.601 611.601 0 01-2.516-13.837l-1.972.336zm2.524 13.883c.842 4.329 1.625 8.004 2.35 11.022l1.944-.466c-.715-2.982-1.492-6.627-2.33-10.938l-1.964.382zm2.352 11.032c.362 1.449.688 2.574.979 3.348.143.381.294.724.459.989.082.131.194.286.344.42.144.128.42.32.808.32v-2c.298 0 .478.147.521.185.049.044.054.064.023.015a3.914 3.914 0 01-.283-.631c-.249-.666-.553-1.701-.911-3.132l-1.94.486zm2.59 5.077c.631 0 1.346-.155 2.116-.411l-.632-1.898c-.67.224-1.155.309-1.484.309v2zm2.075-.398c.769-.22 1.455-.322 2.065-.322v-2c-.83 0-1.704.138-2.615.398l.55 1.924zm2.065-.322c.16 0 .259.02.314.039a.304.304 0 01.049.021l.01.007.007.01a.304.304 0 01.021.049.995.995 0 01.039.314h2c0-.634-.159-1.293-.653-1.787s-1.153-.653-1.787-.653v2zm.44.44c0 .791-.195 1.333-.501 1.715l1.562 1.25c.654-.818.939-1.836.939-2.965h-2zm-.501 1.715a9.298 9.298 0 01-1.464 1.464l1.25 1.562a11.385 11.385 0 001.776-1.776l-1.562-1.25zm-1.546 1.538c-.451.451-.895.839-1.333 1.167l1.2 1.6a14.58 14.58 0 001.547-1.353l-1.414-1.414zm-1.44 1.26c-.535.535-.833 1.204-.833 1.967h2c0-.197.062-.368.247-.553l-1.414-1.414zm-.833 1.967c0 .603.16 1.557.428 2.779.275 1.254.685 2.877 1.227 4.864l1.93-.526c-.538-1.973-.938-3.56-1.203-4.766-.272-1.238-.382-1.994-.382-2.351h-2zm1.655 7.642l2.88 10.62 1.93-.524-2.88-10.62-1.93.524zm2.875 10.601c.254 1.018.812 2.683 1.652 4.963l1.876-.692c-.84-2.28-1.362-3.855-1.588-4.757l-1.94.486zm1.652 4.963a243.408 243.408 0 012.509 7.17l1.898-.632a245.679 245.679 0 00-2.531-7.23l-1.876.692zm2.53 7.225c.955 2.39 1.79 4.597 2.505 6.622l1.886-.666a172.724 172.724 0 00-2.535-6.698l-1.856.742zm2.499 6.605a50.5 50.5 0 01.794 2.557c.087.318.148.571.187.766.019.097.032.173.04.231l.007.067.001.023h2c0-.395-.13-.971-.305-1.613a52.874 52.874 0 00-.826-2.663l-1.898.632zM245.76 214.7c.826 0 2.233-.199 4.144-.557l-.368-1.966c-1.929.362-3.162.523-3.776.523v2zm4.203-.57a149.396 149.396 0 005.979-1.631l-.564-1.918a150.726 150.726 0 01-5.901 1.609l.486 1.94zm5.979-1.631c2.06-.605 3.886-1.214 5.477-1.826l-.718-1.866c-1.529.588-3.303 1.179-5.323 1.774l.564 1.918zm5.477-1.826c.799-.307 1.451-.603 1.92-.891.232-.143.463-.31.648-.509.172-.186.413-.517.413-.973h-2c0-.276.144-.412.121-.388a1.32 1.32 0 01-.23.166c-.311.192-.829.436-1.59.729l.718 1.866zm2.981-2.373c0-.328-.096-.76-.214-1.203a31.886 31.886 0 00-.557-1.813l-1.898.632c.237.711.41 1.275.523 1.697.056.211.095.377.119.503.025.135.027.187.027.184h2zm-.746-2.925a198.691 198.691 0 00-1.447-5.789l-1.934.508a201.437 201.437 0 011.433 5.731l1.948-.45zm-1.433-5.731l-1.62-8.1-1.962.392 1.62 8.1 1.962-.392zm-1.62-8.1a174.11 174.11 0 01-1.611-9.485l-1.98.282a175.29 175.29 0 001.629 9.595l1.962-.392zm-1.607-9.454a666.973 666.973 0 01-.899-8.806l-1.99.192c.36 3.722.66 6.668.901 8.834l1.988-.22zm-.899-8.806c-.36-3.721-.72-7.382-1.08-10.984l-1.99.199c.36 3.599.72 7.258 1.08 10.977l1.99-.192zm-1.08-10.98c-.36-3.719-.659-6.897-.899-9.535l-1.992.182c.24 2.642.541 5.824.901 9.545l1.99-.192zm-.899-9.535l-.002-.015-.001-.015-.001-.016-.002-.015-.001-.016-.001-.015-.002-.015-.001-.015-.002-.016-.001-.015-.001-.015-.002-.015-.001-.015-.002-.015-.001-.015-.001-.015-.002-.015-.001-.015-.001-.015-.002-.015-.001-.015-.001-.015-.002-.014-.001-.015-.001-.015-.002-.015-.001-.014-.001-.015-.002-.014-.001-.015-.001-.015-.002-.014-.001-.015-.001-.014-.002-.014-.001-.015-.001-.014-.002-.015-.001-.014-.001-.014-.001-.014-.002-.015-.001-.014-.001-.014-.002-.014-.001-.014-.001-.014-.001-.014-.002-.014-.001-.014-.001-.014-.002-.014-.001-.014-.001-.014-.001-.014-.002-.013-.001-.014-.001-.014-.001-.014-.002-.013-.001-.014-.001-.014-.001-.013-.001-.014-.002-.013-.001-.014-.001-.013-.001-.014-.002-.013-.001-.013-.001-.014-.001-.013-.001-.013-.002-.014-.001-.013-.001-.013-.001-.013-.001-.013-.002-.013-.001-.013-.001-.013-.001-.013-.001-.013-.002-.013-.001-.013-.001-.013-.001-.013-.001-.013-.001-.013-.002-.012-.001-.013-.001-.013-.001-.012-.001-.013-.001-.013-.001-.012-.002-.013-.001-.012-.001-.013-.001-.012-.001-.013-.001-.012-.001-.013-.002-.012-.001-.012-.001-.012-.001-.013-.001-.012-.001-.012-.001-.012-.001-.012-.001-.013-.001-.012-.002-.012-.001-.012-.001-.012-.001-.012-.001-.012-.001-.011-.001-.012-.001-.012-.001-.012-.001-.012-.001-.011-.001-.012-.001-.012-.002-.011-.001-.012-.001-.012-.001-.011-.001-.012-.001-.011-.001-.012-.001-.011-.001-.012-.001-.011-.001-.011-.001-.012-.001-.011-.001-.011-.001-.011-.001-.011-.001-.012-.001-.011-.001-.011-.001-.011-.001-.011-.001-.011-.001-.011-.001-.011-.001-.011-.001-.011-.001-.011-.001-.01-.001-.011-.001-.011-.001-.011-.001-.01-.001-.011-.001-.011-.001-.01-.001-.011-.001-.011-.001-.01-.001-.011-.001-.01-.001-.011-.001-.01-.001-.01v-.011l-.001-.01-.001-.01-.001-.011-.001-.01-.001-.01-.001-.01-.001-.01-.001-.01-.001-.01-.001-.01-.001-.01-.001-.01v-.01l-.001-.01-.001-.01-.001-.01-.001-.01-.001-.01-.001-.01-.001-.009-.001-.01v-.01l-.001-.009-.001-.01-.001-.01-.001-.009-.001-.01-.001-.009-.001-.01v-.009l-.001-.009-.001-.01-.001-.009-.001-.01-.001-.009-.001-.009v-.009l-.001-.009-.001-.01-.001-.009-.001-.009-.001-.009v-.009l-.001-.009-.001-.009-.001-.009-.001-.009v-.009l-.001-.009-.001-.009-.001-.008-.001-.009v-.009l-.001-.009-.001-.008-.001-.009-.001-.009v-.008l-.001-.009-.001-.008-.001-.009v-.008l-.001-.009-.001-.008-.001-.008v-.009l-.001-.008-.001-.008-.001-.009-.001-.008v-.008l-.001-.008-.001-.008v-.009l-.001-.008-.001-.008-.001-.008v-.008l-.001-.008-.001-.008-.001-.007v-.008l-.001-.008-.001-.008v-.008l-.001-.008-.001-.007-.001-.008v-.008l-.001-.007-.001-.008v-.007l-.001-.008-.001-.007v-.008l-.001-.007-.001-.008v-.007l-.001-.008-.001-.007v-.007l-.001-.007-.001-.008v-.007l-.001-.007-.001-.007v-.007l-.001-.007-.001-.007v-.007l-.001-.007v-.007l-.001-.007-.001-.007v-.007l-.001-.007-.001-.007v-.007l-.001-.006v-.007l-.001-.007-.001-.006v-.007l-.001-.007v-.006l-.001-.007-.001-.006v-.007l-.001-.006v-.007l-.001-.006-.001-.006v-.007l-.001-.006v-.006l-.001-.006v-.007l-.001-.006-.001-.006v-.006l-.001-.006v-.006l-.001-.006v-.006l-.001-.006v-.006l-.001-.006v-.006l-.001-.006v-.006l-.001-.005-.001-.006v-.006l-.001-.006v-.005l-.001-.006v-.006l-.001-.005v-.006l-.001-.005v-.006l-.001-.005v-.006l-.001-.005v-.005l-.001-.006v-.005l-.001-.005v-.005-.006l-.001-.005v-.005l-.001-.005v-.005l-.001-.005v-.005l-.001-.005v-.005l-.001-.005v-.005l-.001-.005v-.005-.005l-.001-.004v-.005l-.001-.005v-.005l-.001-.004v-.005-.005l-.001-.004v-.005l-.001-.004v-.005-.004l-.001-.005v-.004l-.001-.004v-.005-.004l-.001-.004v-.004l-.001-.005v-.004-.004l-.001-.004v-.004-.004l-.001-.004v-.004l-.001-.004v-.004-.004l-.001-.004v-.004-.004l-.001-.004v-.003-.004l-.001-.004v-.003-.004l-.001-.004v-.003-.004l-.001-.003v-.004-.003l-.001-.004v-.003-.003-.004l-.001-.003v-.003-.004l-.001-.003v-.003-.003l-.001-.003v-.003-.003-.003l-.001-.003v-.003-.003-.003l-.001-.003v-.003-.003-.003l-.001-.002v-.003-.003-.003l-.001-.002v-.003-.002-.003l-.001-.002v-.003-.002-.003l-.001-.002v-.003-.002-.002-.003l-.001-.002v-.002-.002-.002-.003l-.001-.002v-.002-.002-.002-.002-.002l-.001-.002v-.001-.002-.002-.002-.002l-.001-.001v-.002-.002-.001-.002-.002l-.001-.001v-.002-.001-.002-.001-.002-.001-.001l-.001-.002v-.001-.001-.001-.002-.001-.001-.001-.001l-.001-.001v-.001-.001-.001-.001-.001-.001-.001-.001-.001-.001-.001h-.001v-.001-.001-.001-.001-.001-.001-.001l-.996.091-.996.091v.003l.001.001V149.005l.001.001V149.016l.001.001v.01l.001.001v.01l.001.002V149.049l.001.001v.01a.003.003 0 01.001.002V149.071l.001.002V149.082l.001.003v.007l.001.003v.007l.001.003v.011l.001.002v.006l.001.003V149.136l.001.003V149.148l.001.003v.006l.001.003v.01l.001.003v.007l.001.003v.007l.001.004v.007l.001.003v.008l.001.003v.008l.001.004v.007l.001.004v.008l.001.004v.008l.001.004v.004l.001.004v.008l.001.004V149.291l.001.004v.004l.001.005V149.313l.001.004v.004l.001.005V149.335l.001.005v.004l.001.005v.004l.001.005v.01l.001.004v.005l.001.005v.005l.001.005v.01l.001.005v.005a.009.009 0 01.001.005v.005l.001.005v.005l.001.005v.006l.001.005v.005l.001.005v.006l.001.005v.006l.001.005v.005l.001.006v.005l.001.006v.006l.001.005v.006l.001.005v.006l.001.006v.006l.001.005v.006l.001.006v.006a.013.013 0 01.001.006v.006a.013.013 0 01.001.006v.006a.013.013 0 01.001.006l.001.006v.006l.001.006v.006l.001.006v.007a.013.013 0 01.001.006l.001.006v.006l.001.007v.006l.001.006v.007a.013.013 0 01.001.006l.001.007v.006l.001.007v.006a.02.02 0 01.001.007l.001.007v.006l.001.007v.007l.001.007.001.006v.007l.001.007v.007l.001.007.001.007v.007l.001.007.001.007v.007l.001.007.001.007v.007l.001.007.001.007v.008l.001.007.001.007v.008l.001.007.001.007v.008l.001.007.001.008v.007l.001.008.001.007v.008a.017.017 0 01.001.007l.001.008v.008l.001.008.001.007.001.008v.008l.001.008.001.008v.007l.001.008.001.008.001.008v.008l.001.008.001.009v.008l.001.008.001.008.001.008v.008a.028.028 0 01.001.009l.001.008.001.008v.009l.001.008.001.008.001.009.001.008v.009a.025.025 0 01.001.008l.001.009.001.009v.008a.028.028 0 01.001.009l.001.009.001.008.001.009v.009l.001.009.001.008.001.009.001.009v.009a.028.028 0 01.001.009l.001.009.001.009.001.009.001.009v.009a.028.028 0 01.001.009l.001.01.001.009.001.009.001.009v.01l.001.009a.028.028 0 01.001.009l.001.01.001.009.001.009.001.01v.009l.001.01.001.01.001.009.001.01.001.009.001.01v.01a.03.03 0 01.001.01.028.028 0 01.001.009l.001.01.001.01.001.01.001.01.001.01.001.01.001.01v.01l.001.01.001.01a.03.03 0 01.001.01l.001.01.001.01.001.01.001.011.001.01.001.01.001.01.001.011.001.01.001.011.001.01v.01l.001.011a.034.034 0 01.001.01.045.045 0 01.001.011l.001.011.001.01a.041.041 0 01.001.011.037.037 0 01.001.011.034.034 0 01.001.01.041.041 0 01.001.011l.001.011.001.011.001.01.001.011.001.011.001.011.001.011.001.011.001.011.001.011.001.011.001.011.001.011.001.012.001.011.001.011.001.011.001.012a.037.037 0 01.001.011l.001.011a.049.049 0 01.001.012.037.037 0 01.001.011l.001.011.001.012.001.011.002.012.001.011.001.012.001.012.001.011.001.012.001.012.001.011.001.012.001.012.001.012.001.012a.049.049 0 01.001.012l.001.011a.049.049 0 01.001.012l.002.012.001.012.001.012.001.013.001.012.001.012.001.012a.049.049 0 01.001.012.049.049 0 01.001.012.053.053 0 01.001.013l.002.012.001.012.001.013.001.012.001.012.001.013.001.012a.057.057 0 01.001.013l.002.012.001.013.001.012.001.013.001.013a.049.049 0 01.001.012l.002.013.001.013.001.012.001.013.001.013a.057.057 0 01.001.013l.002.013.001.013.001.013.001.013.001.013a.053.053 0 01.001.013l.002.013.001.013.001.013.001.013a.062.062 0 01.001.013l.002.014.001.013.001.013.001.013a.066.066 0 01.001.014l.002.013.001.014.001.013.001.013.002.014.001.013.001.014.001.014a.057.057 0 01.001.013l.002.014.001.013.001.014a.066.066 0 01.001.014l.002.014.001.013.001.014a.07.07 0 01.001.014l.002.014.001.014.001.014.002.014.001.014.001.014.001.014.002.014.001.014.001.014a.07.07 0 01.001.014l.002.015.001.014.001.014.002.015.001.014.001.014.002.015.001.014.001.015.002.014.001.015.001.014.001.015.002.014.001.015.001.015.002.014.001.015.001.015.002.015.001.014.002.015.001.015.001.015.002.015.001.015.001.015.002.015.001.015.001.015.002.015.001.015.002.016.001.015.001.015.002.015.001.016.002.015.001.015.001.016.002.015.001.016 1.992-.182zm-1.356-3.869l-.981-.196v.004l-.001.001v.004l-.001.001v.004l-.001.001v.004l-.001.001v.004l-.001.001v.004l-.001.001v.003l-.001.002v.004l-.001.002v.002l-.001.002v.004l-.001.001v.003l-.001.002v.004l-.001.002v.003l-.001.002v.003l-.001.002v.003l-.001.002v.002l-.001.002v.003l-.001.002v.004l-.001.002v.002l-.001.002v.004l-.001.002v.002l-.001.002v.004l-.001.002v.002l-.001.003v.002l-.001.002v.002l-.001.003v.004l-.001.002v.003l-.001.002v.002l-.001.003v.002l-.001.003v.002l-.001.003v.002l-.001.003v.002l-.001.003v.002l-.001.003v.003l-.001.002v.003l-.001.003v.002l-.001.003-.001.003v.003l-.001.002v.003l-.001.003v.003l-.001.003-.001.003v.003l-.001.002v.003l-.001.003v.003l-.001.003-.001.003v.004l-.001.003-.001.003v.003l-.001.003v.003l-.001.003-.001.004v.003l-.001.003-.001.003v.004l-.001.003-.001.003v.004l-.001.003-.001.003v.004l-.001.003-.001.004v.003l-.001.004-.001.003-.001.004v.003l-.001.004-.001.003v.004l-.001.004-.001.003-.001.004v.004l-.001.003-.001.004-.001.004v.004l-.001.003-.001.004-.001.004v.004l-.001.004-.001.004-.001.004-.001.004v.004l-.001.004-.001.004-.001.004-.001.004v.004l-.001.004-.001.004-.001.004-.001.004v.004l-.001.005-.001.004-.001.004-.001.004-.001.004-.001.005v.004l-.001.004-.001.005-.001.004-.001.005-.001.004-.001.004-.001.005v.004l-.001.005-.001.004-.001.005-.001.004-.001.005-.001.005-.001.004-.001.005-.001.005-.001.004-.001.005-.001.005v.004l-.001.005-.001.005-.001.005-.001.005-.001.005-.001.004-.001.005-.001.005-.001.005-.001.005-.001.005-.001.005-.001.005-.001.005-.001.005-.001.005-.001.005-.001.005-.001.006-.001.005-.001.005-.001.005-.001.005-.002.006-.001.005-.001.005-.001.005-.001.006-.001.005-.001.006-.001.005-.001.005-.001.006-.001.005-.001.006-.001.005-.002.006-.001.005-.001.006-.001.005-.001.006-.001.006-.001.005-.001.006-.001.005-.002.006-.001.006-.001.006-.001.005-.001.006-.001.006-.002.006-.001.006-.001.005-.001.006-.001.006-.001.006-.002.006-.001.006-.001.006-.001.006-.001.006-.002.006-.001.006-.001.006-.001.006-.002.007-.001.006-.001.006-.001.006-.001.006-.002.006-.001.007-.001.006-.001.006-.002.007-.001.006-.001.006-.002.007-.001.006-.001.006-.001.007-.002.006-.001.007-.001.006-.002.007-.001.006-.001.007-.002.007-.001.006-.001.007-.001.006-.002.007-.001.007-.002.006-.001.007-.001.007-.002.007-.001.007-.001.006-.002.007-.001.007-.001.007-.002.007-.001.007-.002.007-.001.007-.001.007-.002.007-.001.007-.002.007-.001.007-.001.007-.002.007-.001.007-.002.007-.001.007-.001.007-.002.008-.001.007-.002.007-.001.007-.002.008-.001.007-.002.007-.001.008-.002.007-.001.007-.002.008-.001.007-.002.008-.001.007-.002.008-.001.007-.002.008-.001.007-.002.008-.001.007-.002.008-.001.008-.002.007-.001.008-.002.008-.001.007-.002.008-.001.008-.002.008-.001.007-.002.008-.002.008-.001.008-.002.008-.001.008-.002.008a.019.019 0 01-.002.007l-.001.008-.002.008-.001.008-.002.008a.03.03 0 01-.002.009l-.001.008-.002.008-.001.008-.002.008-.002.008-.001.008-.002.008a.03.03 0 01-.002.009l-.001.008-.002.008-.001.008-.002.009-.002.008-.001.008a.03.03 0 00-.002.009l-.002.008-.001.008a.03.03 0 00-.002.009l-.002.008-.002.009-.001.008-.002.009-.002.008-.001.009-.002.008-.002.009-.001.008-.002.009-.002.009-.002.008-.001.009a.03.03 0 00-.002.009l-.002.009-.002.008-.001.009a.03.03 0 00-.002.009l-.002.009-.002.008-.001.009a.03.03 0 00-.002.009l-.002.009-.002.009-.002.009-.001.009-.002.009-.002.009-.002.009a.03.03 0 01-.002.009l-.001.009a.03.03 0 00-.002.009l-.002.009-.002.009-.002.009-.001.009-.002.01-.002.009-.002.009-.002.009-.002.01-.002.009-.001.009-.002.009-.002.01-.002.009-.002.01-.002.009a.03.03 0 01-.002.009.03.03 0 01-.002.01l-.001.009a.036.036 0 00-.002.01.03.03 0 00-.002.009.036.036 0 00-.002.01l-.002.009-.002.01-.002.01-.002.009a.036.036 0 01-.002.01.03.03 0 01-.002.009l-.002.01a.036.036 0 01-.002.01.03.03 0 01-.002.009l-.001.01a.036.036 0 00-.002.01.03.03 0 00-.002.01l-.002.01-.002.009-.002.01a.036.036 0 00-.002.01.036.036 0 00-.002.01.036.036 0 00-.002.01l-.002.01-.002.01-.002.01-.002.01-.002.01-.002.01-.002.01-.002.01-.002.01a.036.036 0 00-.002.01.036.036 0 00-.002.01.036.036 0 00-.002.01l-.002.01-.002.011a.03.03 0 00-.002.01.036.036 0 00-.002.01.036.036 0 00-.002.01l-.003.011-.002.01a.036.036 0 01-.002.01l-.002.01-.002.011a.036.036 0 01-.002.01l-.002.011-.002.01-.002.01-.002.011a.036.036 0 00-.002.01l-.002.011a.036.036 0 00-.002.01l-.003.011 1.962.392.002-.01.002-.011.002-.01.002-.011.002-.01.002-.011a.036.036 0 00.002-.01l.002-.011a.036.036 0 00.002-.01.036.036 0 00.002-.01l.003-.011.002-.01.002-.01.002-.011.002-.01.002-.01.002-.01.002-.01.002-.011.002-.01.002-.01.002-.01.002-.01.002-.01.002-.01.002-.01.002-.01.002-.01.002-.01.002-.01.002-.01.002-.01.002-.01.002-.01.002-.009.002-.01.002-.01.002-.01.002-.01.002-.009a.03.03 0 01.002-.01l.002-.01.001-.009.002-.01.002-.01.002-.009a.036.036 0 00.002-.01l.002-.009.002-.01.002-.009.002-.01a.03.03 0 01.002-.009l.002-.01.001-.009.002-.01.002-.009.002-.01.002-.009.002-.009.002-.01a.03.03 0 01.002-.009l.001-.009a.03.03 0 00.002-.009l.002-.01.002-.009.002-.009.002-.009.001-.009a.036.036 0 00.002-.01l.002-.009.002-.009.002-.009a.03.03 0 01.002-.009l.001-.009.002-.009.002-.009.002-.009a.03.03 0 01.002-.009l.001-.009.002-.009.002-.009.002-.008.001-.009a.03.03 0 00.002-.009l.002-.009.002-.009.002-.009.001-.008.002-.009.002-.009.001-.008a.03.03 0 00.002-.009l.002-.009.002-.008.001-.009a.03.03 0 00.002-.008l.002-.009.002-.009.001-.008.002-.009a.03.03 0 01.002-.008l.001-.009.002-.008.002-.008.001-.009.002-.008.002-.008.001-.009.002-.008.002-.008.001-.009.002-.008.002-.008.001-.008.002-.009a.03.03 0 01.002-.008l.001-.008.002-.008.001-.008.002-.008.002-.008.001-.008.002-.008.001-.008a.03.03 0 00.002-.008l.002-.008.001-.008.002-.008.001-.008.002-.008.002-.008.001-.008.002-.007.001-.008.002-.008.001-.008.002-.007.001-.008.002-.008.002-.008.001-.007.002-.008.001-.007.002-.008.001-.008.002-.007.001-.008.002-.007.001-.008.002-.007.001-.008.002-.007.001-.007.002-.008.001-.007.002-.008.001-.007.001-.007.002-.007.001-.008.002-.007.001-.007.002-.007.001-.008.002-.007.001-.007.001-.007.002-.007.001-.007.002-.007.001-.007.001-.007.002-.007.001-.007.002-.007.001-.007.001-.007.002-.007.001-.007.002-.007.001-.006.001-.007.002-.007.001-.007.001-.007.002-.006.001-.007.001-.007.002-.006.001-.007.001-.007.002-.006.001-.007.001-.006.002-.007.001-.006.001-.007.001-.006.002-.007.001-.006.001-.007.002-.006.001-.006.001-.007.001-.006.002-.006.001-.007.001-.006.001-.006.002-.007.001-.006.001-.006.001-.006.002-.006.001-.006.001-.006.001-.007.002-.006.001-.006.001-.006.001-.006.001-.006.002-.006.001-.006.001-.006.001-.005.001-.006.001-.006.002-.006.001-.006.001-.006.001-.005.001-.006.001-.006.002-.006.001-.005.001-.006.001-.006.001-.005.001-.006.001-.005.001-.006.002-.006.001-.005.001-.006.001-.005.001-.006.001-.005.001-.005.001-.006.001-.005.001-.006.001-.005.001-.005.002-.006.001-.005.001-.005.001-.005.001-.006.001-.005.001-.005.001-.005.001-.005.001-.005.001-.006.001-.005.001-.005.001-.005.001-.005.001-.005.001-.005.001-.005.001-.005.001-.004.001-.005.001-.005.001-.005.001-.005.001-.005.001-.005.001-.004.001-.005.001-.005v-.004l.001-.005.001-.005.001-.004.001-.005.001-.005.001-.004.001-.005.001-.004.001-.005.001-.004.001-.005v-.004l.001-.005.001-.004.001-.005.001-.004.001-.004.001-.005.001-.004v-.004l.001-.005.001-.004.001-.004.001-.004.001-.004.001-.005v-.004l.001-.004.001-.004.001-.004.001-.004v-.004l.001-.004.001-.004.001-.004.001-.004v-.004l.001-.004.001-.004.001-.004.001-.004v-.004l.001-.003.001-.004.001-.004v-.004l.001-.003.001-.004.001-.004v-.004l.001-.003.001-.004v-.003l.001-.004.001-.004.001-.003v-.004l.001-.003.001-.004v-.003l.001-.004.001-.003.001-.003v-.004l.001-.003.001-.004v-.003l.001-.003.001-.004v-.003l.001-.003v-.003l.001-.003.001-.004v-.003l.001-.003.001-.003v-.003l.001-.003v-.003l.001-.003.001-.003v-.003l.001-.003v-.003l.001-.003.001-.003v-.003l.001-.003v-.003l.001-.003v-.002l.001-.003.001-.003v-.003l.001-.002v-.003l.001-.003v-.002l.001-.003v-.003l.001-.002v-.003l.001-.003v-.002l.001-.003v-.002l.001-.003v-.002l.001-.002v-.003l.001-.002v-.003l.001-.002v-.002l.001-.003v-.002l.001-.002v-.003l.001-.002v-.002-.002l.001-.002v-.002l.001-.003v-.002l.001-.002v-.002-.002l.001-.002v-.002l.001-.002v-.002-.002l.001-.002v-.002l.001-.002v-.001-.002l.001-.002v-.002-.002l.001-.001v-.002-.002l.001-.002v-.001-.002l.001-.002v-.001-.002l.001-.001v-.002-.001l.001-.002v-.001-.002-.001l.001-.002v-.001-.002l.001-.001v-.001-.002-.001l.001-.001v-.002-.001-.001l.001-.001v-.001-.002-.001l.001-.001v-.001-.001-.001-.001l.001-.001v-.001-.001-.001-.001l.001-.001v-.001-.001-.001-.001l.001-.001v-.001-.001-.001-.001l.001-.001v-.001-.001-.001-.001l.001-.001v-.001-.001-.001-.001l.001-.001-.981-.196zm-1.518 2.49a795.247 795.247 0 01-1.258 5.753l1.952.434c.481-2.162.901-4.084 1.262-5.767l-1.956-.42zm-1.267 5.796a564.069 564.069 0 01-1.078 5.93l1.966.368c.361-1.923.721-3.907 1.082-5.95l-1.97-.348zm-1.086 5.982c-.12.902-.211 1.613-.272 2.13-.057.486-.097.869-.097 1.062h2l.003-.058.015-.173c.014-.148.036-.346.065-.597.059-.503.148-1.202.268-2.1l-1.982-.264zm-.369 3.192v5.04h2v-5.04h-2zm0 5.04c0-.018-.001.03-.025.202-.02.151-.052.358-.096.624-.089.53-.222 1.272-.402 2.23l1.966.368c.18-.962.317-1.72.408-2.27.084-.502.149-.931.149-1.154h-2zm-.531 3.108a226.736 226.736 0 01-1.075 6.988l1.972.328c.481-2.885.843-5.237 1.085-7.052l-1.982-.264zm-1.074 6.981c-.48 2.758-1.02 5.816-1.619 9.175l1.968.352c.601-3.361 1.141-6.423 1.621-9.185l-1.97-.342zm-1.624 9.204c-.48 3.237-.959 6.353-1.438 9.349l1.974.316a802.27 802.27 0 001.442-9.371l-1.978-.294zm-1.438 9.349a840.78 840.78 0 00-1.262 8.11l1.978.296c.359-2.396.779-5.092 1.258-8.09l-1.974-.316zm-1.268 8.153c-.239 2.275-.365 3.885-.365 4.785h2c0-.78.114-2.29.355-4.575l-1.99-.21zm-.365 4.785c0 .336.058.771.335 1.14.318.423.781.58 1.205.58v-2a.43.43 0 01.17.041.587.587 0 01.225.179c.052.069.066.123.069.132.002.009-.004-.011-.004-.072h-2z"/>
  </g>
  <g>
    <path fill="#0F93FF" d="M365.42 256.72c.24.72.48 1.38.72 1.98.24.6.42 1.26.54 1.98.24.72.36 1.38.36 1.98 0 .84-.3 1.5-.9 1.98-.6.6-1.32 1.08-2.16 1.44-.72.36-1.44.6-2.16.72-.72.12-1.14.18-1.26.18-.72 0-2.04-2.22-3.96-6.66-1.92-4.32-4.02-10.44-6.3-18.36-2.16-7.92-4.38-17.34-6.66-28.26-2.28-10.92-4.14-22.92-5.58-36-.24 2.76-.72 6-1.44 9.72-.6 3.6-1.56 7.02-2.88 10.26-1.32 3.24-3.06 6-5.22 8.28-2.04 2.16-4.68 3.24-7.92 3.24-2.28 0-4.86-1.2-7.74-3.6-2.88-2.4-5.7-5.22-8.46-8.46-2.64-3.36-5.1-6.72-7.38-10.08-2.16-3.48-3.78-6.3-4.86-8.46.48 5.28 1.26 11.64 2.34 19.08 1.2 7.44 3 15.3 5.4 23.58.24.84.48 1.5.72 1.98.36.36.66.78.9 1.26.36.48.6 1.02.72 1.62.24.48.36 1.26.36 2.34 0 1.56-.6 2.7-1.8 3.42-1.2.72-2.34 1.08-3.42 1.08-.6 0-1.38-.9-2.34-2.7-.96-1.92-1.98-4.38-3.06-7.38s-2.16-6.3-3.24-9.9c-1.08-3.72-2.1-7.38-3.06-10.98-.84-3.6-1.56-6.96-2.16-10.08-.6-3.24-.9-5.82-.9-7.74 0-3.12.12-5.28.36-6.48.36-1.2.84-2.1 1.44-2.7v-10.98c0-1.68.42-2.94 1.26-3.78.96-.96 2.16-1.44 3.6-1.44 1.2 0 2.58 1.02 4.14 3.06 1.56 2.04 3.24 4.62 5.04 7.74 1.92 3.12 3.9 6.48 5.94 10.08 2.04 3.6 4.02 6.96 5.94 10.08 2.04 3.12 3.96 5.7 5.76 7.74 1.92 2.04 3.72 3.06 5.4 3.06 1.56 0 3.06-1.44 4.5-4.32 1.44-3 2.76-6.9 3.96-11.7 1.32-4.8 2.46-10.26 3.42-16.38.96-6.12 1.74-12.36 2.34-18.72 0-.72-.06-1.5-.18-2.34-.12-.96-.18-1.98-.18-3.06 0-1.44.3-3 .9-4.68.72-1.68 2.04-2.52 3.96-2.52 1.08 0 1.92.3 2.52.9.72.6 1.2 1.38 1.44 2.34.24.84.36 1.74.36 2.7.12.84.18 1.56.18 2.16 0 .96-.12 2.58-.36 4.86-.12 2.16-.18 5.52-.18 10.08 0 3.96.3 8.58.9 13.86.6 5.16 1.38 10.68 2.34 16.56 1.08 5.76 2.28 11.76 3.6 18 1.44 6.12 2.94 12.12 4.5 18 1.68 5.88 3.3 11.46 4.86 16.74 1.68 5.16 3.36 9.72 5.04 13.68z"/>
    <path fill="#F4F4F4" d="M365.42 256.72l.949-.316-.013-.038-.015-.037-.921.391zm.72 1.98l-.928.371.928-.371zm.54 1.98l-.986.164.013.078.024.074.949-.316zm-.54 3.96l-.625-.781-.043.035-.039.039.707.707zm-2.16 1.44l-.394-.919-.027.011-.026.014.447.894zm-7.38-5.76l.918-.397-.004-.009-.914.406zm-6.3-18.36l-.965.263.004.014.961-.277zm-6.66-28.26l.979-.204-.979.204zm-5.58-36l.994-.109-1.99.022.996.087zm-1.44 9.72l-.982-.19-.002.013-.002.013.986.164zm-2.88 10.26l.926.377-.926-.377zm-5.22 8.28l-.726-.688-.001.001.727.687zm-24.12-8.82l-.786.618.012.015.013.015.761-.648zm-7.38-10.08l-.85.527.011.018.012.017.827-.562zm-4.86-8.46l.894-.447-1.89.538.996-.091zm2.34 19.08l-.99.144.002.007.001.008.987-.159zm5.4 23.58l.962-.275-.002-.003-.96.278zm.72 1.98l-.894.447.072.145.115.115.707-.707zm.9 1.26l-.894.447.04.081.054.072.8-.6zm.72 1.62l-.981.196.027.131.06.12.894-.447zm-1.44 5.76l.514.857-.514-.857zm-5.76-1.62l-.894.447.005.012.007.012.882-.471zm-3.06-7.38l.941-.339-.941.339zm-3.24-9.9l-.96.279.002.008.958-.287zM285.68 202l-.974.227.004.016.004.015.966-.258zm-2.16-10.08l-.983.182.001.007.982-.189zm-.54-14.22l-.958-.287-.013.045-.01.046.981.196zm1.44-2.7l.707.707.293-.293V175h-1zm1.26-14.76l-.707-.707.707.707zm12.78 9.36l-.866.5.007.012.007.012.852-.524zm11.88 20.16l-.852.524.008.012.007.011.837-.547zm5.76 7.74l-.75.662.011.012.011.011.728-.685zm9.9-1.26l.894.447.004-.007.004-.007-.902-.433zm3.96-11.7l-.964-.265-.003.011-.003.011.97.243zm3.42-16.38l.988.155-.988-.155zm2.34-18.72l.996.094.004-.047v-.047h-1zm-.18-2.34l-.992.124.001.009.001.008.99-.141zm.72-7.74l-.919-.394-.012.029-.011.029.942.336zm6.48-1.62l-.707.707.032.032.035.029.64-.768zm1.44 2.34l-.97.243.004.016.004.016.962-.275zm.36 2.7h-1v.071l.01.07.99-.141zm-.18 7.02l-.995-.105-.002.025-.001.025.998.055zm.72 23.94l-.994.113.001.002.993-.115zm2.34 16.56l-.987.161.002.012.002.011.983-.184zm3.6 18l-.978.207.002.011.003.011.973-.229zm4.5 18l-.967.256.003.01.002.009.962-.275zm4.86 16.74l-.959.283.004.014.004.013.951-.31zm4.091 13.996c.245.736.492 1.414.741 2.035l1.856-.742a35.876 35.876 0 01-.699-1.925l-1.898.632zm.741 2.035c.21.526.372 1.115.482 1.773l1.972-.328a10.504 10.504 0 00-.598-2.187l-1.856.742zm.519 1.925c.215.644.309 1.196.309 1.664h2c0-.732-.146-1.5-.411-2.296l-1.898.632zm.309 1.664c0 .569-.186.928-.525 1.199l1.25 1.562c.861-.689 1.275-1.65 1.275-2.761h-2zm-.607 1.273a5.819 5.819 0 01-1.847 1.228l.788 1.838a7.8 7.8 0 002.473-1.652l-1.414-1.414zm-1.9 1.253c-.64.32-1.265.526-1.877.628l.328 1.972a8.627 8.627 0 002.443-.812l-.894-1.788zm-1.877.628c-.357.059-.634.103-.832.131l-.228.03c-.065.007-.066.005-.036.005v2c.146 0 .357-.028.546-.055.222-.032.515-.078.878-.139l-.328-1.972zm-1.096.166c.166 0 .254.062.24.053a.926.926 0 01-.156-.146c-.187-.203-.439-.552-.754-1.083-.627-1.054-1.417-2.673-2.372-4.881l-1.836.794c.965 2.232 1.795 3.943 2.488 5.109.345.579.678 1.063 1.001 1.414.162.176.346.347.553.479.203.13.49.261.836.261v-2zm-3.046-6.066c-1.893-4.258-3.978-10.328-6.253-18.231l-1.922.554c2.285 7.937 4.4 14.107 6.347 18.489l1.828-.812zm-6.249-18.217c-2.153-7.895-4.369-17.295-6.646-28.201l-1.958.408c2.283 10.934 4.507 20.374 6.674 28.319l1.93-.526zm-6.646-28.201c-2.273-10.884-4.128-22.852-5.565-35.905l-1.988.218c1.443 13.107 3.308 25.139 5.595 36.095l1.958-.408zm-7.555-35.883c-.236 2.716-.71 5.92-1.426 9.617l1.964.38c.724-3.743 1.21-7.019 1.454-9.823l-1.992-.174zm-1.43 9.643c-.589 3.53-1.529 6.878-2.82 10.047l1.852.754a48.988 48.988 0 002.94-10.473l-1.972-.328zm-2.82 10.047c-1.279 3.138-2.955 5.789-5.02 7.969l1.452 1.376c2.255-2.38 4.059-5.249 5.42-8.591l-1.852-.754zm-5.021 7.97c-1.833 1.941-4.2 2.927-7.193 2.927v2c3.487 0 6.4-1.174 8.647-3.553l-1.454-1.374zM320.6 208.2c-1.937 0-4.292-1.029-7.1-3.368l-1.28 1.536c2.952 2.461 5.757 3.832 8.38 3.832v-2zm-7.1-3.368c-2.831-2.359-5.611-5.138-8.339-8.34l-1.522 1.296c2.792 3.278 5.652 6.139 8.581 8.58l1.28-1.536zm-8.314-8.31a178.362 178.362 0 01-7.339-10.024l-1.654 1.124a179.892 179.892 0 007.421 10.136l1.572-1.236zm-7.316-9.989c-2.154-3.47-3.755-6.26-4.816-8.38l-1.788.894c1.099 2.2 2.738 5.05 4.904 8.54l1.7-1.054zm-6.706-7.842c.482 5.303 1.265 11.682 2.346 19.133l1.98-.288c-1.079-7.429-1.856-13.77-2.334-19.027l-1.992.182zm2.349 19.148c1.207 7.486 3.017 15.386 5.427 23.699l1.92-.556c-2.39-8.247-4.18-16.067-5.373-23.461l-1.974.318zm5.425 23.696c.248.867.508 1.593.788 2.152l1.788-.894c-.2-.402-.42-.995-.652-1.808l-1.924.55zm.975 2.412c.28.28.518.611.713 1l1.788-.894a5.792 5.792 0 00-1.087-1.52l-1.414 1.414zm.807 1.153c.269.358.448.76.539 1.216l1.962-.392a4.966 4.966 0 00-.901-2.024l-1.6 1.2zm.626 1.467c.13.261.254.842.254 1.893h2c0-1.109-.116-2.088-.466-2.787l-1.788.894zm.254 1.893c0 1.257-.455 2.047-1.314 2.563l1.028 1.714c1.541-.924 2.286-2.414 2.286-4.277h-2zm-1.314 2.563c-1.09.653-2.053.937-2.906.937v2c1.307 0 2.624-.436 3.934-1.223l-1.028-1.714zm-2.906.937c.173 0 .087.093-.279-.33-.319-.367-.713-.967-1.179-1.841l-1.764.942c.494.926.97 1.676 1.431 2.209.414.477 1.018 1.02 1.791 1.02v-2zm-1.446-2.147c-.936-1.873-1.941-4.293-3.013-7.272l-1.882.678c1.088 3.021 2.123 5.521 3.107 7.488l1.788-.894zm-3.013-7.272a192.817 192.817 0 01-3.223-9.848l-1.916.574a194.217 194.217 0 003.257 9.952l1.882-.678zm-3.221-9.84a517.372 517.372 0 01-3.054-10.959l-1.932.516a521.376 521.376 0 003.066 11.001l1.92-.558zm-3.046-10.928a261.56 261.56 0 01-2.152-10.042l-1.964.378a266.075 266.075 0 002.168 10.118l1.948-.454zm-2.151-10.035c-.595-3.216-.883-5.727-.883-7.558h-2c0 2.009.312 4.658.917 7.922l1.966-.364zm-.883-7.558c0-3.125.122-5.193.341-6.284l-1.962-.392c-.261 1.309-.379 3.561-.379 6.676h2zm.318-6.193c.333-1.111.749-1.839 1.189-2.28l-1.414-1.414c-.76.759-1.304 1.831-1.691 3.12l1.916.574zM285.42 175v-10.98h-2V175h2zm0-10.98c0-1.526.381-2.487.967-3.073l-1.414-1.414c-1.094 1.094-1.553 2.653-1.553 4.487h2zm.967-3.073c.76-.76 1.7-1.147 2.893-1.147v-2c-1.687 0-3.147.573-4.307 1.733l1.414 1.414zm2.893-1.147c.312 0 .751.134 1.341.569.587.434 1.256 1.12 2.005 2.098l1.588-1.214c-.811-1.062-1.612-1.906-2.405-2.492-.79-.585-1.641-.961-2.529-.961v2zm3.346 2.667c1.525 1.996 3.182 4.537 4.968 7.633l1.732-1c-1.814-3.144-3.517-5.763-5.112-7.847l-1.588 1.214zm4.982 7.657a324.561 324.561 0 015.922 10.049l1.74-.986a325.32 325.32 0 00-5.958-10.111l-1.704 1.048zm5.922 10.049a325.32 325.32 0 005.958 10.111l1.704-1.048a324.561 324.561 0 01-5.922-10.049l-1.74.986zm5.973 10.134c2.057 3.147 4.006 5.768 5.847 7.855l1.5-1.324c-1.759-1.993-3.65-4.532-5.673-7.625l-1.674 1.094zm5.869 7.878c1.988 2.113 4.036 3.375 6.128 3.375v-2c-1.268 0-2.82-.778-4.672-2.745l-1.456 1.37zm6.128 3.375c1.115 0 2.115-.521 2.988-1.359.864-.83 1.66-2.021 2.406-3.514l-1.788-.894c-.694 1.387-1.368 2.356-2.004 2.966-.627.602-1.157.801-1.602.801v2zm5.402-4.887c1.479-3.083 2.819-7.053 4.028-11.89l-1.94-.486c-1.191 4.763-2.491 8.593-3.892 11.51l1.804.866zm4.022-11.868c1.332-4.844 2.479-10.341 3.444-16.49l-1.976-.31c-.955 6.091-2.088 11.514-3.396 16.27l1.928.53zm3.444-16.49a307.931 307.931 0 002.348-18.781l-1.992-.188a305.313 305.313 0 01-2.332 18.659l1.976.31zm2.352-18.875c0-.775-.065-1.603-.19-2.481l-1.98.282c.115.802.17 1.534.17 2.199h2zm-.188-2.464a23.76 23.76 0 01-.172-2.936h-2c0 1.117.062 2.178.188 3.184l1.984-.248zm-.172-2.936c0-1.302.271-2.747.842-4.344l-1.884-.672c-.629 1.763-.958 3.438-.958 5.016h2zm.819-4.286c.295-.687.685-1.146 1.148-1.44.466-.297 1.08-.474 1.893-.474v-2c-1.107 0-2.113.243-2.967.786-.857.546-1.487 1.347-1.912 2.34l1.838.788zm3.041-1.914c.891 0 1.448.242 1.813.607l1.414-1.414c-.835-.835-1.958-1.193-3.227-1.193v2zm1.88.668c.547.457.918 1.048 1.11 1.815l1.94-.486c-.288-1.153-.877-2.122-1.77-2.865l-1.28 1.536zm1.118 1.847c.213.742.322 1.549.322 2.425h2c0-1.044-.131-2.037-.398-2.975l-1.924.55zm.332 2.566c.116.811.17 1.481.17 2.019h2c0-.662-.066-1.432-.19-2.301l-1.98.282zm.17 2.019c0 .902-.115 2.476-.355 4.755l1.99.21c.24-2.281.365-3.947.365-4.965h-2zm-.358 4.805c-.122 2.189-.182 5.572-.182 10.135h2c0-4.557.06-7.894.178-10.025l-1.996-.11zm-.182 10.135c0 4.008.303 8.667.906 13.973l1.988-.226c-.597-5.254-.894-9.835-.894-13.747h-2zm.907 13.975a365.224 365.224 0 002.346 16.606l1.974-.322c-.958-5.867-1.736-11.372-2.334-16.515l-1.986.231zm2.35 16.629a796.116 796.116 0 003.605 18.023l1.956-.414a794.118 794.118 0 01-3.595-17.977l-1.966.368zm3.61 18.045a659.098 659.098 0 004.506 18.027l1.934-.512a655.121 655.121 0 01-4.494-17.973l-1.946.458zm4.511 18.046a1956.275 1956.275 0 004.863 16.748l1.918-.566a1933.325 1933.325 0 01-4.857-16.732l-1.924.55zm4.871 16.775c1.687 5.18 3.377 9.768 5.07 13.761l1.842-.782c-1.667-3.927-3.337-8.459-5.01-13.599l-1.902.62z"/>
  </g>
  <g style="mix-blend-mode:color">
    <path fill="#000" d="M0 0h400v400H0z"/>
  </g>
</svg>
